<?xml version="1.0" encoding="UTF-8" standalone="no"?>
<!DOCTYPE svg PUBLIC "-//W3C//DTD SVG 1.1//EN" "http://www.w3.org/Graphics/SVG/1.1/DTD/svg11.dtd">
<svg version="1.1" xmlns="http://www.w3.org/2000/svg" xmlns:xlink="http://www.w3.org/1999/xlink" preserveAspectRatio="xMidYMid meet" viewBox="0 0 1500 1500" width="1500" height="1500"><defs><path d="M523.79 606.25C536.9 606.25 547.53 620.68 547.53 638.48C547.53 641.89 547.53 658.96 547.53 689.68L16.43 689.68C16.43 658.96 16.43 641.89 16.43 638.48C16.43 620.68 27.06 606.25 40.17 606.25C40.17 606.25 475.43 606.25 523.79 606.25Z" id="d5TcbndWMw"></path><path d="M507.59 601.91C505.84 592.35 498.71 586.52 491.66 588.9C485.79 590.88 481.68 598.04 481.69 606.25C481.69 606.34 481.71 606.42 481.71 606.51C480.06 606.72 478.44 607.18 476.86 607.87C475.96 603.01 473.6 598.88 470.35 596.48C474.57 593.31 477.91 588.36 479.85 582.37C490.59 582.13 499.25 571.59 499.25 558.57C499.25 545.41 490.4 534.73 479.49 534.73C477.1 534.75 474.73 535.3 472.47 536.36C470.82 526.77 463.76 520.83 456.7 523.08C449.64 525.33 445.26 534.92 446.92 544.5C447.01 545.02 447.12 545.53 447.24 546.04C446.72 546.54 446.23 547.09 445.74 547.65C443.25 544.75 440.03 543.29 436.76 543.59C432.79 528.11 420.33 519.93 408.93 525.32C400.28 529.41 394.42 540.39 394.26 552.83C392.5 553.02 390.76 553.49 389.08 554.23C388.89 553.23 388.64 552.24 388.32 551.29C391.83 547.1 393.86 541.08 393.9 534.73C393.9 521.57 385.06 510.89 374.15 510.89C371.76 510.91 369.39 511.46 367.13 512.52C365.48 502.94 358.41 496.99 351.36 499.24C344.3 501.49 339.92 511.08 341.58 520.66C341.67 521.18 341.78 521.69 341.9 522.2C336.3 527.48 332.83 536.01 332.52 545.26C332.33 545.48 332.12 545.67 331.94 545.9C332.27 544.2 332.44 542.45 332.45 540.69C332.45 527.53 323.61 516.85 312.7 516.85C310.31 516.87 307.94 517.42 305.68 518.48C304.03 508.9 296.96 502.95 289.91 505.2C282.85 507.45 278.47 517.04 280.13 526.62C280.22 527.14 280.33 527.65 280.45 528.16C270.51 537.49 268.01 556 274.89 569.51C276.39 572.46 278.28 575.02 280.45 577.06C279.56 580.52 279.56 584.29 280.45 587.76C278.25 589.84 276.35 592.45 274.84 595.46C272.91 586 265.71 580.44 258.74 583.05C253.51 585 249.72 591.14 249.19 598.46C247.44 597.06 245.53 596.02 243.55 595.37C247.11 592.18 249.91 587.67 251.61 582.37C262.35 582.13 271.01 571.59 271.01 558.57C271.01 545.41 262.16 534.73 251.25 534.73C248.86 534.75 246.49 535.3 244.23 536.36C242.58 526.77 235.52 520.83 228.46 523.08C221.4 525.33 217.02 534.92 218.68 544.5C218.77 545.02 218.88 545.53 219 546.04C218.72 546.31 218.47 546.62 218.19 546.9C217.51 546.82 216.84 546.65 216.14 546.65C213.75 546.67 211.38 547.21 209.12 548.27C209.04 547.82 208.9 547.41 208.79 546.97C210.31 537.49 205.88 528.14 198.9 526.08C197.74 525.73 196.54 525.61 195.35 525.71C191.26 510.24 178.7 502.2 167.31 507.75C155.91 513.31 149.99 530.36 154.08 545.83C155.43 550.94 157.79 555.46 160.89 558.88C159.38 559.11 157.9 559.55 156.45 560.19C154.75 550.68 147.7 544.84 140.69 547.15C138.81 547.77 137.05 548.95 135.55 550.61C131.59 544.22 125.73 540.58 119.58 540.69C117.19 540.71 114.82 541.25 112.56 542.31C110.9 532.73 103.84 526.79 96.78 529.04C89.73 531.29 85.35 540.88 87 550.46C87.09 550.98 87.2 551.49 87.32 552C81.41 557.55 77.88 566.69 77.88 576.45C77.88 576.54 77.9 576.63 77.9 576.72C74.79 576.08 71.61 576.54 68.67 578.07C67.01 568.49 59.95 562.55 52.89 564.8C45.83 567.05 41.45 576.64 43.11 586.22C43.2 586.74 43.31 587.25 43.43 587.76C33.44 596.94 30.82 615.4 37.59 628.97C42.67 639.17 51.87 644.04 60.71 641.21C62.76 657.37 74.08 668.2 85.98 665.41C93 663.76 98.98 657.58 102.03 648.84C107.19 663.66 120.23 670 131.15 663C135.96 659.91 139.77 654.55 141.88 647.92C144.47 647.87 147.03 647.2 149.44 645.93C153.42 661.42 165.89 669.59 177.29 664.19C183.07 661.45 187.74 655.55 190.16 647.92C193.36 647.83 196.51 646.78 199.37 644.83C205.31 659.09 218.64 664.11 229.14 656.04C233.29 652.85 236.56 647.91 238.45 641.96C239.62 641.92 240.8 641.76 241.95 641.46C246.57 656.66 259.39 663.9 270.58 657.64C275.85 654.69 280.07 649.06 282.34 641.96C284.06 641.9 285.77 641.55 287.44 640.94C296.49 644.37 306.14 639.37 311.2 628.62C308.18 644.55 315.23 660.79 326.96 664.9C337.41 668.56 348.27 661.36 352.57 647.92C355.77 647.83 358.91 646.78 361.77 644.83C367.71 659.09 381.04 664.11 391.54 656.04C395.69 652.85 398.96 647.91 400.85 641.96C404.05 641.88 407.19 640.82 410.05 638.87C415.92 653.07 429.16 658.12 439.62 650.15C440.66 649.36 441.66 648.45 442.59 647.43C444.74 663.55 456.12 674.25 467.99 671.33C473.48 669.97 478.37 665.83 481.68 659.74C491.23 669.68 504.92 667.22 512.24 654.25C513.34 652.3 514.25 650.18 514.97 647.92C525.71 647.68 534.36 637.14 534.36 624.13C534.36 610.96 525.52 600.29 514.61 600.29C512.22 600.3 509.85 600.85 507.59 601.91ZM122.25 588.42C122.09 588.42 121.93 588.37 121.77 588.37C121.12 588.39 120.46 588.48 119.82 588.64C119.85 588.53 119.9 588.43 119.94 588.33C120.73 588.27 121.52 588.16 122.31 587.99C122.28 588.13 122.27 588.28 122.25 588.42ZM305.43 577.07C308.78 573.91 311.42 569.56 313.06 564.49C318.9 564.44 324.45 561.03 328.32 555.1C328.15 556.25 328.07 557.41 328.07 558.57C328.08 560.39 328.31 562.19 328.73 563.92C324.96 567.49 322.11 572.56 320.57 578.44C315.8 575.92 310.52 575.79 305.68 578.07C305.62 577.73 305.51 577.41 305.43 577.07ZM437.15 579.19C437.71 579.19 438.27 579.14 438.82 579.04C439.67 582.89 441.1 586.47 443 589.55C442.59 589.71 442.15 589.81 441.75 589.99C441.04 586.16 439.42 582.75 437.14 580.29C437.13 579.93 437.17 579.55 437.15 579.19Z" id="a164vDvxeU"></path><path d="M60.64 636.05C35.33 636.04 14.81 663.9 14.81 698.27C14.81 699.38 14.83 700.5 14.88 701.61C17.85 757.11 41.63 1201.05 44.6 1256.54C45.9 1289.57 66.01 1315.44 90.37 1315.44C128.69 1315.44 435.27 1315.44 473.59 1315.44C497.95 1315.44 518.06 1289.57 519.36 1256.54C522.33 1201.05 546.11 757.11 549.08 701.61C550.44 667.3 531.05 637.98 505.78 636.14C504.96 636.08 504.14 636.05 503.31 636.05C414.78 636.05 149.18 636.05 60.64 636.05Z" id="a1RRQajssb"></path><path d="M108.6 636.05C108.6 636.05 108.6 636.05 108.6 636.05C108.6 1043.68 108.6 1270.15 108.6 1315.44C108.6 1315.44 108.6 1315.44 108.6 1315.44C92.8 1315.44 84.02 1315.44 82.27 1315.44C82.27 1315.44 82.27 1315.44 82.27 1315.44C82.27 907.8 82.27 681.34 82.27 636.05C82.27 636.05 82.27 636.05 82.27 636.05C98.07 636.05 106.85 636.05 108.6 636.05Z" id="cAuaDPbpw"></path><path d="M183.22 636.05C183.22 636.05 183.22 636.05 183.22 636.05C183.22 1043.68 183.22 1270.15 183.22 1315.44C183.22 1315.44 183.22 1315.44 183.22 1315.44C167.42 1315.44 158.64 1315.44 156.89 1315.44C156.89 1315.44 156.89 1315.44 156.89 1315.44C156.89 907.8 156.89 681.34 156.89 636.05C156.89 636.05 156.89 636.05 156.89 636.05C172.69 636.05 181.47 636.05 183.22 636.05Z" id="ae1mjN3k1"></path><path d="M257.84 636.05C257.84 636.05 257.84 636.05 257.84 636.05C257.84 1043.68 257.84 1270.15 257.84 1315.44C257.84 1315.44 257.84 1315.44 257.84 1315.44C242.04 1315.44 233.26 1315.44 231.5 1315.44C231.5 1315.44 231.5 1315.44 231.5 1315.44C231.5 907.8 231.5 681.34 231.5 636.05C231.5 636.05 231.5 636.05 231.5 636.05C247.3 636.05 256.08 636.05 257.84 636.05Z" id="b54F8lqz3v"></path><path d="M332.45 636.05C332.45 636.05 332.45 636.05 332.45 636.05C332.45 1043.68 332.45 1270.15 332.45 1315.44C332.45 1315.44 332.45 1315.44 332.45 1315.44C316.65 1315.44 307.88 1315.44 306.12 1315.44C306.12 1315.44 306.12 1315.44 306.12 1315.44C306.12 907.8 306.12 681.34 306.12 636.05C306.12 636.05 306.12 636.05 306.12 636.05C321.92 636.05 330.7 636.05 332.45 636.05Z" id="b1ybNyV6w"></path><path d="M407.07 636.05C407.07 636.05 407.07 636.05 407.07 636.05C407.07 1043.68 407.07 1270.15 407.07 1315.44C407.07 1315.44 407.07 1315.44 407.07 1315.44C391.27 1315.44 382.49 1315.44 380.74 1315.44C380.74 1315.44 380.74 1315.44 380.74 1315.44C380.74 907.8 380.74 681.34 380.74 636.05C380.74 636.05 380.74 636.05 380.74 636.05C396.54 636.05 405.32 636.05 407.07 636.05Z" id="etKOCgTvV"></path><path d="M481.69 636.05C481.69 636.05 481.69 636.05 481.69 636.05C481.69 1043.68 481.69 1270.15 481.69 1315.44C481.69 1315.44 481.69 1315.44 481.69 1315.44C465.89 1315.44 457.11 1315.44 455.35 1315.44C455.35 1315.44 455.35 1315.44 455.35 1315.44C455.35 907.8 455.35 681.34 455.35 636.05C455.35 636.05 455.35 636.05 455.35 636.05C471.15 636.05 479.93 636.05 481.69 636.05Z" id="c1FO3rG73r"></path><path d="M911.34 357.52L899.86 319.55C808.02 370.75 757 399.19 746.79 404.88C739.7 408.84 735.08 418.21 735.07 428.62C735.07 443.59 735.07 518.44 735.07 653.17L765.31 653.17L765.31 438.98L911.34 357.52Z" id="b51K9QeQv"></path><path d="M891.67 278.29C891.67 278.29 891.67 278.29 891.67 278.29C891.67 363.35 891.67 410.6 891.67 420.05C891.67 420.05 891.67 420.05 891.67 420.05C871.9 420.05 860.91 420.05 858.71 420.05C858.71 420.05 858.71 420.05 858.71 420.05C858.71 335 858.71 287.74 858.71 278.29C858.71 278.29 858.71 278.29 858.71 278.29C878.49 278.29 889.48 278.29 891.67 278.29Z" id="a2eOD9zwo1"></path><path d="M839.48 308.13C839.48 308.13 839.48 308.13 839.48 308.13C839.48 393.19 839.48 440.44 839.48 449.89C839.48 449.89 839.48 449.89 839.48 449.89C819.7 449.89 808.71 449.89 806.51 449.89C806.51 449.89 806.51 449.89 806.51 449.89C806.51 364.84 806.51 317.58 806.51 308.13C806.51 308.13 806.51 308.13 806.51 308.13C826.29 308.13 837.28 308.13 839.48 308.13Z" id="a2Be0vexdy"></path><path d="M765.29 438.7L755.68 287.62L788.64 287.62L788.64 429.38L788.64 429.38L765.29 438.7Z" id="c5ZYKS5I6"></path><path d="M807.87 446.16C807.87 446.16 807.87 446.16 807.87 446.16C807.87 473.02 807.87 487.94 807.87 490.92C807.87 490.92 807.87 490.92 807.87 490.92C745.23 490.92 710.43 490.92 703.47 490.92C703.47 490.92 703.47 490.92 703.47 490.92C703.47 464.07 703.47 449.15 703.47 446.16C703.47 446.16 703.47 446.16 703.47 446.16C766.11 446.16 800.91 446.16 807.87 446.16Z" id="c4BuDU9Wyc"></path><path d="M807.89 507.73C807.89 507.73 807.89 507.73 807.89 507.73C807.89 534.58 807.89 549.5 807.89 552.49C807.89 552.49 807.89 552.49 807.89 552.49C745.24 552.49 710.44 552.49 703.48 552.49C703.48 552.49 703.48 552.49 703.48 552.49C703.48 525.63 703.48 510.71 703.48 507.73C703.48 507.73 703.48 507.73 703.48 507.73C766.13 507.73 800.93 507.73 807.89 507.73Z" id="cT6tur6r"></path><path d="M807.87 569.3C807.87 569.3 807.87 569.3 807.87 569.3C807.87 596.15 807.87 611.07 807.87 614.05C807.87 614.05 807.87 614.05 807.87 614.05C745.23 614.05 710.43 614.05 703.47 614.05C703.47 614.05 703.47 614.05 703.47 614.05C703.47 587.2 703.47 572.28 703.47 569.3C703.47 569.3 703.47 569.3 703.47 569.3C766.11 569.3 800.91 569.3 807.87 569.3Z" id="a1Dqqnts6U"></path><path d="M657.45 1311.52L607.99 639.97L903.37 639.97L859.4 1311.52L859.4 1311.52L657.45 1311.52Z" id="eRMTdeuVF"></path><path d="M924.66 632.7C924.66 632.7 924.66 632.7 924.66 632.7C924.66 659.56 924.66 674.48 924.66 677.46C924.66 677.46 924.66 677.46 924.66 677.46C721.88 677.46 609.23 677.46 586.7 677.46C586.7 677.46 586.7 677.46 586.7 677.46C586.7 650.61 586.7 635.69 586.7 632.7C586.7 632.7 586.7 632.7 586.7 632.7C789.47 632.7 902.13 632.7 924.66 632.7Z" id="c1iMRVivo4"></path><path d="M1268.48 164.54C1205.75 164.54 1154.9 233.58 1154.9 318.76C1154.9 403.93 1205.75 472.97 1268.48 472.97C1331.21 472.97 1382.06 403.93 1382.06 318.76C1382.06 233.58 1331.21 164.54 1268.48 164.54Z" id="d5V6eRQq2"></path><path d="M1230 394.6L1230 318.75L1230 242.91L1343.69 318.75L1343.69 318.75L1230 394.6Z" id="dCLuh0Jjl"></path><linearGradient id="gradientaGRzlBtOC" gradientUnits="userSpaceOnUse" x1="1286.85" y1="394.6" x2="1286.85" y2="242.91"><stop style="stop-color: #000000;stop-opacity: 0.12" offset="0%"></stop><stop style="stop-color: #000000;stop-opacity: 0.09" offset="55.00000000000001%"></stop><stop style="stop-color: #000000;stop-opacity: 0.02" offset="100%"></stop></linearGradient><path d="M1236.82 385.5L1236.82 318.75L1236.82 252.01L1336.85 318.75L1336.85 318.75L1236.82 385.5Z" id="c3gbHQj03"></path><path d="M1242.82 179.39C1276.65 179.43 1308.7 199.92 1330.26 235.31C1297.66 162.51 1227.77 139.38 1174.16 183.65C1120.55 227.91 1103.51 322.8 1136.11 395.6C1139.01 402.07 1142.25 408.24 1145.82 414.07C1134.87 389.84 1129.08 361.96 1129.12 333.53C1129.17 248.33 1180.07 179.32 1242.82 179.39Z" id="azltb9hiN"></path><path d="M1248.53 1119.16C1245.78 1119.17 1243.54 1122.2 1243.54 1125.94C1243.54 1144.21 1243.54 1290.39 1243.54 1308.66C1243.54 1312.4 1245.78 1315.44 1248.53 1315.44C1271.7 1315.44 1457.03 1315.44 1480.19 1315.44C1482.95 1315.44 1485.18 1312.4 1485.19 1308.66C1485.19 1290.39 1485.19 1144.21 1485.19 1125.94C1485.18 1122.2 1482.95 1119.17 1480.19 1119.16C1433.86 1119.16 1294.86 1119.16 1248.53 1119.16Z" id="bkGPLIhHL"></path><path d="M1274.42 1135.28C1269.28 1135.28 1265.12 1140.94 1265.11 1147.91C1265.11 1161.79 1265.11 1272.81 1265.11 1286.69C1265.12 1293.66 1269.28 1299.32 1274.42 1299.33C1292.41 1299.33 1436.31 1299.33 1454.3 1299.33C1459.44 1299.32 1463.6 1293.66 1463.61 1286.69C1463.61 1272.81 1463.61 1161.79 1463.61 1147.91C1463.6 1140.94 1459.44 1135.28 1454.3 1135.28C1418.33 1135.28 1310.4 1135.28 1274.42 1135.28Z" id="f8qGcaO5N"></path><path d="M1251.14 1179.35C1251.14 1179.35 1251.14 1179.35 1251.14 1179.35C1251.14 1202.12 1251.14 1214.77 1251.14 1217.3C1251.14 1217.3 1251.14 1217.3 1251.14 1217.3C1178.73 1217.3 1138.51 1217.3 1130.47 1217.3C1130.47 1217.3 1130.47 1217.3 1130.47 1217.3C1130.47 1194.53 1130.47 1181.88 1130.47 1179.35C1130.47 1179.35 1130.47 1179.35 1130.47 1179.35C1202.87 1179.35 1243.09 1179.35 1251.14 1179.35Z" id="d1HLcOkg0N"></path><path d="M920.49 1119.16C917.73 1119.17 915.5 1122.2 915.49 1125.94C915.49 1144.21 915.49 1290.39 915.49 1308.66C915.5 1312.4 917.73 1315.43 920.49 1315.44C943.65 1315.44 1128.98 1315.44 1152.15 1315.44C1154.9 1315.43 1157.14 1312.4 1157.14 1308.66C1157.14 1290.39 1157.14 1144.21 1157.14 1125.94C1157.14 1122.2 1154.9 1119.17 1152.15 1119.16C1105.82 1119.16 966.82 1119.16 920.49 1119.16Z" id="b1wyLN51Ld"></path><path d="M946.38 1135.28C941.24 1135.28 937.07 1140.94 937.07 1147.91C937.07 1161.79 937.07 1272.81 937.07 1286.69C937.07 1293.67 941.24 1299.32 946.38 1299.33C964.37 1299.33 1108.27 1299.33 1126.26 1299.33C1131.4 1299.32 1135.56 1293.67 1135.57 1286.69C1135.57 1272.81 1135.57 1161.79 1135.57 1147.91C1135.56 1140.94 1131.4 1135.28 1126.26 1135.28C1090.28 1135.28 982.35 1135.28 946.38 1135.28Z" id="byj3rkcWc"></path></defs><g><g><use xlink:href="#d5TcbndWMw" opacity="1" fill="#3f3d56" fill-opacity="1"></use><g><use xlink:href="#d5TcbndWMw" opacity="1" fill-opacity="0" stroke="#000000" stroke-width="1" stroke-opacity="0"></use></g></g><g><use xlink:href="#a164vDvxeU" opacity="1" fill="#f9a825" fill-opacity="1"></use><g><use xlink:href="#a164vDvxeU" opacity="1" fill-opacity="0" stroke="#000000" stroke-width="1" stroke-opacity="0"></use></g></g><g><use xlink:href="#a1RRQajssb" opacity="1" fill="#3f3d56" fill-opacity="1"></use><g><use xlink:href="#a1RRQajssb" opacity="1" fill-opacity="0" stroke="#000000" stroke-width="1" stroke-opacity="0"></use></g></g><g><use xlink:href="#cAuaDPbpw" opacity="1" fill="#6c63ff" fill-opacity="1"></use><g><use xlink:href="#cAuaDPbpw" opacity="1" fill-opacity="0" stroke="#000000" stroke-width="1" stroke-opacity="0"></use></g></g><g><use xlink:href="#ae1mjN3k1" opacity="1" fill="#6c63ff" fill-opacity="1"></use><g><use xlink:href="#ae1mjN3k1" opacity="1" fill-opacity="0" stroke="#000000" stroke-width="1" stroke-opacity="0"></use></g></g><g><use xlink:href="#b54F8lqz3v" opacity="1" fill="#6c63ff" fill-opacity="1"></use><g><use xlink:href="#b54F8lqz3v" opacity="1" fill-opacity="0" stroke="#000000" stroke-width="1" stroke-opacity="0"></use></g></g><g><use xlink:href="#b1ybNyV6w" opacity="1" fill="#6c63ff" fill-opacity="1"></use><g><use xlink:href="#b1ybNyV6w" opacity="1" fill-opacity="0" stroke="#000000" stroke-width="1" stroke-opacity="0"></use></g></g><g><use xlink:href="#etKOCgTvV" opacity="1" fill="#6c63ff" fill-opacity="1"></use><g><use xlink:href="#etKOCgTvV" opacity="1" fill-opacity="0" stroke="#000000" stroke-width="1" stroke-opacity="0"></use></g></g><g><use xlink:href="#c1FO3rG73r" opacity="1" fill="#6c63ff" fill-opacity="1"></use><g><use xlink:href="#c1FO3rG73r" opacity="1" fill-opacity="0" stroke="#000000" stroke-width="1" stroke-opacity="0"></use></g></g><g><use xlink:href="#b51K9QeQv" opacity="1" fill="#3f3d56" fill-opacity="1"></use><g><use xlink:href="#b51K9QeQv" opacity="1" fill-opacity="0" stroke="#000000" stroke-width="1" stroke-opacity="0"></use></g></g><g><use xlink:href="#a2eOD9zwo1" opacity="1" fill="#6c63ff" fill-opacity="1"></use><g><use xlink:href="#a2eOD9zwo1" opacity="1" fill-opacity="0" stroke="#000000" stroke-width="1" stroke-opacity="0"></use></g></g><g><use xlink:href="#a2Be0vexdy" opacity="1" fill="#6c63ff" fill-opacity="1"></use><g><use xlink:href="#a2Be0vexdy" opacity="1" fill-opacity="0" stroke="#000000" stroke-width="1" stroke-opacity="0"></use></g></g><g><use xlink:href="#c5ZYKS5I6" opacity="1" fill="#6c63ff" fill-opacity="1"></use><g><use xlink:href="#c5ZYKS5I6" opacity="1" fill-opacity="0" stroke="#000000" stroke-width="1" stroke-opacity="0"></use></g></g><g><use xlink:href="#c4BuDU9Wyc" opacity="1" fill="#6c63ff" fill-opacity="1"></use><g><use xlink:href="#c4BuDU9Wyc" opacity="1" fill-opacity="0" stroke="#000000" stroke-width="1" stroke-opacity="0"></use></g></g><g><use xlink:href="#cT6tur6r" opacity="1" fill="#6c63ff" fill-opacity="1"></use><g><use xlink:href="#cT6tur6r" opacity="1" fill-opacity="0" stroke="#000000" stroke-width="1" stroke-opacity="0"></use></g></g><g><use xlink:href="#a1Dqqnts6U" opacity="1" fill="#6c63ff" fill-opacity="1"></use><g><use xlink:href="#a1Dqqnts6U" opacity="1" fill-opacity="0" stroke="#000000" stroke-width="1" stroke-opacity="0"></use></g></g><g><use xlink:href="#eRMTdeuVF" opacity="1" fill="#f32888" fill-opacity="1"></use><g><use xlink:href="#eRMTdeuVF" opacity="1" fill-opacity="0" stroke="#000000" stroke-width="1" stroke-opacity="0"></use></g></g><g><use xlink:href="#c1iMRVivo4" opacity="1" fill="#3f3d56" fill-opacity="1"></use><g><use xlink:href="#c1iMRVivo4" opacity="1" fill-opacity="0" stroke="#000000" stroke-width="1" stroke-opacity="0"></use></g></g><g><use xlink:href="#d5V6eRQq2" opacity="1" fill="#3ad29f" fill-opacity="1"></use><g><use xlink:href="#d5V6eRQq2" opacity="1" fill-opacity="0" stroke="#000000" stroke-width="1" stroke-opacity="0"></use></g></g><g><use xlink:href="#dCLuh0Jjl" opacity="1" fill="url(#gradientaGRzlBtOC)"></use><g><use xlink:href="#dCLuh0Jjl" opacity="1" fill-opacity="0" stroke="#000000" stroke-width="1" stroke-opacity="0"></use></g></g><g><use xlink:href="#c3gbHQj03" opacity="1" fill="#ffffff" fill-opacity="1"></use><g><use xlink:href="#c3gbHQj03" opacity="1" fill-opacity="0" stroke="#000000" stroke-width="1" stroke-opacity="0"></use></g></g><g><use xlink:href="#azltb9hiN" opacity="1" fill="#ffffff" fill-opacity="1"></use><g><use xlink:href="#azltb9hiN" opacity="1" fill-opacity="0" stroke="#000000" stroke-width="1" stroke-opacity="0"></use></g></g><g><use xlink:href="#bkGPLIhHL" opacity="1" fill="#3f3d56" fill-opacity="1"></use><g><use xlink:href="#bkGPLIhHL" opacity="1" fill-opacity="0" stroke="#000000" stroke-width="1" stroke-opacity="0"></use></g></g><g><use xlink:href="#f8qGcaO5N" opacity="1" fill="#ff6584" fill-opacity="1"></use><g><use xlink:href="#f8qGcaO5N" opacity="1" fill-opacity="0" stroke="#000000" stroke-width="1" stroke-opacity="0"></use></g></g><g><use xlink:href="#d1HLcOkg0N" opacity="1" fill="#3f3d56" fill-opacity="1"></use><g><use xlink:href="#d1HLcOkg0N" opacity="1" fill-opacity="0" stroke="#000000" stroke-width="1" stroke-opacity="0"></use></g></g><g><use xlink:href="#b1wyLN51Ld" opacity="1" fill="#3f3d56" fill-opacity="1"></use><g><use xlink:href="#b1wyLN51Ld" opacity="1" fill-opacity="0" stroke="#000000" stroke-width="1" stroke-opacity="0"></use></g></g><g><use xlink:href="#byj3rkcWc" opacity="1" fill="#9aff63" fill-opacity="1"></use><g><use xlink:href="#byj3rkcWc" opacity="1" fill-opacity="0" stroke="#000000" stroke-width="1" stroke-opacity="0"></use></g></g></g></svg>