<?xml version="1.0" encoding="utf-8"?>
<!-- Generator: Adobe Illustrator 16.0.0, SVG Export Plug-In . SVG Version: 6.00 Build 0)  -->
<!DOCTYPE svg PUBLIC "-//W3C//DTD SVG 1.1//EN" "http://www.w3.org/Graphics/SVG/1.1/DTD/svg11.dtd" [
	<!ENTITY ns_extend "http://ns.adobe.com/Extensibility/1.0/">
	<!ENTITY ns_ai "http://ns.adobe.com/AdobeIllustrator/10.0/">
	<!ENTITY ns_graphs "http://ns.adobe.com/Graphs/1.0/">
	<!ENTITY ns_vars "http://ns.adobe.com/Variables/1.0/">
	<!ENTITY ns_imrep "http://ns.adobe.com/ImageReplacement/1.0/">
	<!ENTITY ns_sfw "http://ns.adobe.com/SaveForWeb/1.0/">
	<!ENTITY ns_custom "http://ns.adobe.com/GenericCustomNamespace/1.0/">
	<!ENTITY ns_adobe_xpath "http://ns.adobe.com/XPath/1.0/">
]>
<svg version="1.1" id="Слой_1" xmlns:x="&ns_extend;" xmlns:i="&ns_ai;" xmlns:graph="&ns_graphs;"
	 xmlns="http://www.w3.org/2000/svg" xmlns:xlink="http://www.w3.org/1999/xlink" x="0px" y="0px" width="2465.389px"
	 height="2000px" viewBox="0 0 2465.389 2000" enable-background="new 0 0 2465.389 2000" xml:space="preserve">
<metadata>
	<sfw  xmlns="&ns_sfw;">
		<slices></slices>
		<sliceSourceBounds  width="1647.939" height="1816.964" y="-1123.318" x="-3684.28" bottomLeftOrigin="true"></sliceSourceBounds>
	</sfw>
</metadata>
<g>
	<linearGradient id="SVGID_1_" gradientUnits="userSpaceOnUse" x1="1745.1523" y1="686.0967" x2="1944.4185" y2="242.1624">
		<stop  offset="0" style="stop-color:#FF9F55"/>
		<stop  offset="1" style="stop-color:#FFD255"/>
	</linearGradient>
	<path fill="url(#SVGID_1_)" d="M2018.187,469.166c5.198-14.197,8.271-28.87,9.319-43.584l29.153-11.65l-6.158-33.545l-6.159-33.546
		l-31.391-0.535c-6.206-13.383-14.291-26.007-24.193-37.432l12.366-28.829l-28.074-19.366l-28.075-19.365l-22.557,21.8
		c-14.197-5.198-28.87-8.271-43.585-9.319l-11.649-29.154l-33.546,6.159l-33.546,6.159l-0.535,31.39
		c-13.383,6.206-26.007,14.292-37.432,24.194l-28.829-12.367l-19.365,28.075l-19.365,28.075l21.801,22.556
		c-5.199,14.197-8.272,28.87-9.32,43.584l-29.153,11.65l6.159,33.546l6.158,33.545l31.391,0.535
		c6.206,13.383,14.291,26.008,24.193,37.432l-12.366,28.829l28.075,19.366l28.075,19.365l22.556-21.8
		c14.197,5.198,28.87,8.272,43.585,9.319l11.65,29.154l33.546-6.159l33.545-6.159l0.535-31.391
		c13.383-6.206,26.008-14.291,37.432-24.193l28.829,12.367l19.365-28.075l19.365-28.075L2018.187,469.166z M1819.794,482.861
		c-38.019-26.224-47.579-78.302-21.355-116.32s78.302-47.579,116.319-21.355c38.019,26.224,47.579,78.302,21.356,116.32
		C1909.89,499.524,1857.812,509.085,1819.794,482.861z"/>
	<linearGradient id="SVGID_2_" gradientUnits="userSpaceOnUse" x1="1657.7793" y1="270.1978" x2="1839.3882" y2="45.7093">
		<stop  offset="0" style="stop-color:#FF9F55"/>
		<stop  offset="1" style="stop-color:#FFD255"/>
	</linearGradient>
	<path fill="url(#SVGID_2_)" d="M1835.374,162.517c2.405-6.57,3.828-13.361,4.313-20.17l13.491-5.392l-2.85-15.524l-2.851-15.524
		l-14.526-0.248c-2.872-6.193-6.614-12.036-11.196-17.323l5.723-13.341l-12.992-8.962l-12.993-8.962l-10.438,10.089
		c-6.569-2.406-13.36-3.828-20.17-4.313l-5.392-13.492l-15.523,2.85l-15.524,2.851l-0.248,14.527
		c-6.193,2.872-12.035,6.613-17.322,11.196l-13.342-5.723l-8.962,12.992l-8.962,12.993l10.089,10.438
		c-2.405,6.57-3.828,13.36-4.313,20.17l-13.492,5.392l2.851,15.524l2.85,15.524l14.527,0.248
		c2.872,6.193,6.613,12.036,11.196,17.323l-5.724,13.341l12.993,8.962l12.992,8.962l10.438-10.089
		c6.57,2.406,13.36,3.828,20.17,4.313l5.392,13.491l15.524-2.85l15.524-2.851l0.247-14.527c6.193-2.872,12.036-6.613,17.323-11.195
		l13.341,5.723l8.963-12.992l8.962-12.993L1835.374,162.517z M1743.562,168.854c-17.594-12.136-22.019-36.236-9.883-53.831
		c12.136-17.594,36.236-22.019,53.83-9.883c17.595,12.136,22.02,36.236,9.884,53.831
		C1785.257,176.565,1761.155,180.99,1743.562,168.854z"/>
	<g>
		<polygon fill="#FFB955" points="1529.078,1121.943 1680.026,1121.943 1680.026,1231.353 1552.123,1231.353 1529.078,1254.397 		
			"/>
	</g>
	<g>
		<linearGradient id="SVGID_3_" gradientUnits="userSpaceOnUse" x1="876.0732" y1="938.8789" x2="1835.7793" y2="938.8789">
			<stop  offset="0" style="stop-color:#FF9F55"/>
			<stop  offset="1" style="stop-color:#FFD255"/>
		</linearGradient>
		<path fill="url(#SVGID_3_)" d="M1078.601,1313.349c0-158.492,12.264-226.025,36.824-285.863
			c24.524-59.838,75.156-111.98,151.896-156.499c23.015-13.809,51.388-29.523,85.154-47.18c33.73-17.62,66.742-38.729,98.962-63.29
			c32.221-24.525,59.442-53.293,81.702-86.305c22.224-32.976,33.371-70.949,33.371-113.922c0-32.221-6.149-60.593-18.412-85.154
			c-12.299-24.525-28.408-45.238-48.33-62.139c-19.958-16.866-43.368-29.523-70.195-37.974
			c-26.861-8.415-54.084-12.658-81.701-12.658c-33.767,0-64.44,5.753-92.058,17.261c-27.618,11.507-52.574,26.107-74.798,43.728
			c-22.259,17.656-42.217,37.614-59.838,59.838c-17.656,22.259-32.615,43.368-44.878,63.29L876.073,408.394
			c19.922-47.539,46.389-89.756,79.4-126.579c32.975-36.824,70.554-67.893,112.771-93.209
			c42.181-25.315,87.814-44.482,136.937-57.536c49.085-13.018,99.718-19.563,151.896-19.563c58.292,0,115.828,8.45,172.609,25.316
			c56.745,16.901,107.772,43.727,153.047,80.551c45.237,36.824,82.061,84.003,110.469,141.539
			c28.373,57.536,42.577,126.221,42.577,205.98c0,49.122-5.753,92.454-17.261,130.032c-11.507,37.614-28.013,71.74-49.481,102.414
			c-21.504,30.71-46.82,58.328-75.948,82.853c-29.163,24.561-62.139,48.331-98.962,71.345
			c-30.71,18.412-61.384,36.068-92.059,52.934c-30.71,16.901-58.687,35.673-84.003,56.386
			c-25.315,20.713-46.029,44.519-62.139,71.345c-16.11,26.862-24.166,59.479-24.166,181.147H1078.601z M1083.204,1766.251v-317.6
			h255.462v317.6H1083.204z"/>
	</g>
	<g>
		<g>
			<path fill="#323657" d="M1535.277,945.908c0,0-83.169,73.625-107.795,93.289c-11.384,9.09-38.419,9.848-67.413,9.883
				c-9.551,0.016-20.332,0.472-29.878,0c-0.022,0.002,0,0,0,0c-38.105-1.908-71.153-5.409-71.153-5.409s-98.795,5.007-93.963-56.286
				c0,0,11.505-18.547,26.259-22.781c13.622-3.91,79.65,6.912,90.445,7.383c11.891,0.52,94.545,16.588,97.547,16.095
				c3.808-0.626,39.242-21.429,58.188-32.951c28.923-17.588,56.411-31.747,56.411-31.747L1535.277,945.908z"/>
		</g>
		<g>
			<linearGradient id="SVGID_4_" gradientUnits="userSpaceOnUse" x1="1251.8066" y1="917.6201" x2="1778.6974" y2="1025.2406">
				<stop  offset="0" style="stop-color:#9A5CFF"/>
				<stop  offset="0.5425" style="stop-color:#695ADC"/>
				<stop  offset="0.9948" style="stop-color:#4059BF"/>
			</linearGradient>
			<polygon fill="url(#SVGID_4_)" points="1696.929,1044.276 1066.522,935.333 1081.545,847.107 1711.951,956.05 			"/>
			
				<rect x="1046.115" y="846.43" transform="matrix(0.9858 0.1679 -0.1679 0.9858 164.2548 -165.3551)" fill="#2D3038" width="28.119" height="84.86"/>
			<path fill="#3F444F" d="M734.447,490.764c-179.895,0-325.728,145.833-325.728,325.727s145.833,325.727,325.728,325.727
				c179.894,0,325.727-145.833,325.727-325.727S914.341,490.764,734.447,490.764z M734.447,1088.731
				c-104.202,0-194.729-58.543-240.484-144.531c0,0,0-0.004-0.003-0.004c-20.267-38.085-31.751-81.554-31.751-127.706
				c0-150.35,121.884-272.238,272.238-272.238c70.559,0,134.848,26.842,183.209,70.872c54.697,49.796,89.028,121.574,89.028,201.366
				C1006.685,966.844,884.801,1088.731,734.447,1088.731z"/>
			<path opacity="0.3" fill="#C2C2C2" d="M917.656,615.124c0,0-353.295-43.789-423.693,329.076c0,0,0-0.004-0.003-0.004
				c-20.267-38.085-31.751-81.554-31.751-127.706c0-150.35,121.884-272.238,272.238-272.238
				C805.006,544.252,869.295,571.094,917.656,615.124z"/>
		</g>
		<g>
			<path fill="#CAC7D1" d="M931.896,1413.089c0,0,32.179,9.772,45.651,7.299c13.493-2.474,6.664-167.824,7.196-202.23
				c0.408-27.906,15.68-101.586,15.68-101.586s0,0.041,0.021,0.123c0.021,0.021,0.021,0.061,0.021,0.082
				c0,0.041,0.021,0.082,0.021,0.123c1.513,5.52,22.12,81.979,22.836,118.717c0.757,38.128-4.968,183.974-4.968,183.974
				l56.801,5.528l163.243,4.002l34.052-4.016c0,0-4.067-62.369-5.581-91.992c-0.94-18.828-4.6-52.541-3.659-85.373
				c0,0-0.593-34.611,2.842-49.516c0.368-65.787,4.354-130.941,4.354-130.941c2.208-29.828,3.741-57.713,4.62-83.738
				c-7.196-3.803-15.844-8.26-22.773-11.551c-21.426-10.201-51.273-23.939-70.43-32.73c-11.224-5.151-22.202-8.913-22.202-8.913
				s-76.562-7.339-82.776-6.951c-1.963,0.123-11.53,3.455-24.083,8.239c-27.149,10.304-79.485,31.279-87.827,37.269
				c-12.226,8.75-38.066,216.705-39.231,231.261C923.596,1226.396,931.896,1413.089,931.896,1413.089z"/>
		</g>
		<path fill="#1D2033" d="M1267.534,1399.045c0,0-112.045,9.541-210.175,0v32.2c0,0,147.372,21.281,215.089-6.141L1267.534,1399.045
			z"/>
		<g>
			<path fill="#323657" d="M1290.348,1430.862c-7.022-38.268-14.54-86.289-19.932-130.62v-0.178
				c-0.461-3.759-0.922-7.519-1.348-11.242c0-0.177-0.035-0.39-0.071-0.567c-1.773-15.711-3.263-30.713-4.326-44.474
				c-0.815-10.569-0.107-20.854,1.348-30.927c4.291-70.399,6.42-144.594,6.42-144.594c2.233-30.358,8.476-69.831,9.327-96.289
				c-10.427-2.022-17.271-2.199-26.776-5.498c0,0-61.427-22.343-83.025-31.458c0,0,18.229,42.843,31.919,138.53
				c5.249,36.742,14.966,98.63,22.06,161.793c2.802,24.898,7.342,50.113,11.739,73.876s8.582,46.069,10.64,65.116
				c1.383,12.908,3.653,33.975,6.064,56.531c0.391,3.476,0.744,6.951,1.135,10.463h36.777
				C1291.66,1437.92,1290.986,1434.444,1290.348,1430.862z"/>
		</g>
		<path fill="#CAC7D1" d="M1166.223,957.355c0,0,2.044,29.303-22.744,29.984s-44.465-23.12-44.465-23.12l41.144,10.612
			l25.043-21.225L1166.223,957.355z"/>
		<g>
			<path fill="#EEA987" d="M1132.76,732.899c0,0,56.848,9.591,47.206,98.593c-9.643,89.002-59.822,81.152-63.181,81.024
				c-3.358-0.126-50.473,1.075-52.958-107.747C1063.827,804.77,1063.102,724.313,1132.76,732.899z"/>
		</g>
		<g>
			<path fill="#EEA987" d="M1157.667,886.717c0,0-0.006,36.666,1.5,44.601c1.619,8.538-45.648,33.198-76.163,4.465
				c0,0,6.17-40.04,4.254-54.178C1085.342,867.467,1157.667,886.717,1157.667,886.717z"/>
		</g>
		<g>
			<path fill="#EEA987" d="M1180.187,810.764c0,0,6.308-6.593,8.521,0.175c2.214,6.768-7.994,35.376-9.31,38.126
				c0,0-1.167,2.604-2.647,1.147S1180.187,810.764,1180.187,810.764z"/>
		</g>
		<g>
			<path fill="#EEA987" d="M1064.479,803.937c0,0-6.032-6.846-8.521-0.175c-2.49,6.671,6.602,36.626,7.734,38.477
				c0,0,1.957,3.074,3.497,1.68C1068.728,842.524,1064.479,803.937,1064.479,803.937z"/>
		</g>
		<g>
			<path fill="#323657" d="M1184.756,798.772c-1.96,12.179-3.81,21.228-3.81,21.228l-8.273,10.806c0,0,0.489-23.891-0.773-27.645
				c-0.479-1.423-1.043-3.942-1.622-6.669c-0.95-4.502-1.923-9.585-2.589-11.277c-1.065-2.705-48.725-16.624-91.172,2.917
				c0,0,0.359,3.677,0.334,7.778c-0.014,4.768-0.539,10.11-2.727,10.915c-4.07,1.488-2.37,27.962-2.37,27.962l-6.616-7.638
				c0,0-1.914-13.829-3.797-29.723c0,0-0.009-0.039-0.018-0.114c-0.426-3.707-0.86-7.518-1.275-11.301
				c-0.949-15.989,0.633-45.016,21.451-62.071c14.045-6.014,36.476-11.125,73.865,0.322c0,0,8.574,0.572,10.978,2.886
				C1189.626,752.774,1184.756,798.772,1184.756,798.772z"/>
		</g>
		<path fill="#C78D71" d="M1091.157,900.62c0,0,9.074,12.601,30.155,12.123c21.081-0.477,30.231-11.465,30.231-11.465
			s-9.979,20.873-30.332,20.65C1100.86,921.707,1091.157,900.62,1091.157,900.62z"/>
		<path fill="#A09EA6" d="M1161.367,959.144l-21.21,15.688c0,0,17.729-37.774,18.097-52.902L1161.367,959.144z"/>
		<polygon fill="#EAE6F2" points="1158.254,921.93 1172.769,935.348 1187.944,980.61 1161.367,959.144 		"/>
		<path fill="#EEA987" d="M1155.612,935.428c0,0-5.863,20.593-15.455,39.404c0,0-22.261-19.503-29.265-26.451
			C1103.888,941.433,1155.612,935.428,1155.612,935.428z"/>
		<path fill="#A09EA6" d="M1116.869,953.032l23.288,21.8c0,0-27.533-1.829-32.677-6.416L1116.869,953.032z"/>
		<path fill="#EAE6F2" d="M1085.973,912.865c0,0,18.63,30.286,30.896,40.167l-20.667,34.307l-33.131-60.186L1085.973,912.865z"/>
		<g>
			<path fill="#323657" d="M1120.432,1131.284c-4.504-86.785-51.921-198.077-57.348-204.142c-4.221,1.596-19.081,7.838-23.762,9.683
				c-25.642,10.144-77.954,28.657-85.012,33.728c-12.236,8.76-35.358,226.804-36.813,241.345
				c-1.986,19.967,4.221,210.523,4.221,210.523s31.493,6.917,51.106,8.441c3.9,0.32,7.341,0.426,9.93,0.213
				c-1.17,3.512-2.306,6.951-3.44,10.25h111.505c0.318-3.405,0.674-6.916,1.028-10.463c1.348-14.008,2.837-28.975,4.397-44.58
				c4.079-40.68,9.647-78.627,14.683-127.25C1115.608,1213.458,1121.814,1157.706,1120.432,1131.284z M987.081,1219.735
				c3.015-40.608,15.604-92.033,15.604-92.033c7.022,24.364,15.925,135.266,15.925,135.266
				c-0.036,34.827-13.726,94.941-28.444,144.346C993.039,1357.661,985.237,1244.632,987.081,1219.735z"/>
		</g>
		<g>
			<path fill="#323657" d="M989.173,1309.038l-0.709,121.824l-0.07,10.463h-43.907c-7.022-1.95-14.647-4.398-22.769-7.377
				l-0.036-3.086l-2.624-194.92L989.173,1309.038z"/>
		</g>
		<rect x="1134.977" y="1401.021" fill="#3A4066" width="52.812" height="39.264"/>
		<g>
			<g>
				<path fill="#EFAA88" d="M1492.189,918.123c0,0-5.146,22.828-0.202,29.16c4.944,6.333,7.263-1.794,7.263-1.794
					s-2.431,7.997,3.813,10.68c6.244,2.684,8.448-6.983,8.448-6.983s-0.195,6.576,6.853,6.934c7.047,0.358,7.031-8.099,7.031-8.099
					s4.914,9.488,10.63,2.919c9.649-11.09,5.811-27.901,5.811-27.901s-1.313-3.961-8.111-3.836c0,0-2.556-9.952-13.492-5.912
					c0,0-8.794-7.983-14.174,0.062C1506.059,913.35,1496.199,905.392,1492.189,918.123z"/>
			</g>
		</g>
		<linearGradient id="SVGID_5_" gradientUnits="userSpaceOnUse" x1="897.0479" y1="1440.1855" x2="1325.4346" y2="1440.1855">
			<stop  offset="0" style="stop-color:#9A5CFF"/>
			<stop  offset="0.9948" style="stop-color:#4059BF"/>
		</linearGradient>
		<rect x="897.048" y="1430.862" fill="url(#SVGID_5_)" width="428.387" height="18.646"/>
	</g>
	<g>
		<g>
			<path fill="#EEA987" d="M649.176,1095.626c0,0,31.448,5.306,26.114,54.541s-33.094,44.893-34.951,44.822
				c-1.858-0.07-27.922,0.595-29.297-59.605C611.042,1135.384,610.641,1090.876,649.176,1095.626z"/>
		</g>
		<g>
			<path fill="#EEA987" d="M662.954,1181.534c0,0-1.207,20.412,0.706,24.822c1.914,4.41-25.128,18.216-42.009,2.321
				c0,0,3.413-22.15,2.353-29.972C622.944,1170.886,662.954,1181.534,662.954,1181.534z"/>
		</g>
		<g>
			<path fill="#EEA987" d="M675.929,1136.25c0,0,3.489-3.647,4.714,0.097s-4.413,19.888-5.149,21.092c0,0-0.646,1.439-1.465,0.635
				C673.209,1157.268,675.929,1136.25,675.929,1136.25z"/>
		</g>
		<g>
			<path fill="#EEA987" d="M611.403,1134.923c0,0-3.337-3.787-4.715-0.097c-1.377,3.69,3.652,20.261,4.278,21.285
				c0,0,1.083,1.7,1.935,0.929C613.753,1156.27,611.403,1134.923,611.403,1134.923z"/>
		</g>
		<path fill="#C78D71" d="M626.162,1188.407c0,0,5.02,6.971,16.681,6.707c11.662-0.264,16.725-6.342,16.725-6.342
			s-5.521,11.546-16.779,11.423C631.529,1200.073,626.162,1188.407,626.162,1188.407z"/>
		<path fill="#1D2033" d="M545.838,1821.539c0,0-4.299,9.663-7.923,13.494c-3.624,3.829-17.503,10.677-17.578,22.051
			c-0.081,12.335,23.396,8.912,32.576,8.462c9.182-0.451,9.877-7.041,13.742-14.025c3.866-6.984,7.762-5.801,8.487-11.434
			c0.725-5.633-2.96-18.243-2.96-18.243L545.838,1821.539z"/>
		<path fill="#50558A" d="M545.438,1817.972l-0.672,5.851c0,0,14.439,4.843,28.091,0.506l-0.76-7.996L545.438,1817.972z"/>
		<g>
			<g>
				<g>
					<polygon fill="#1A598C" points="1124.67,1843.997 1121.367,1843.865 1137.995,1426.411 850.396,1426.411 833.762,1843.997 
						830.459,1843.865 847.219,1423.104 1141.436,1423.104 					"/>
				</g>
			</g>
		</g>
		<g>
			<g>
				<g>
					<polygon fill="#1A598C" points="1151.607,1843.997 1134.975,1426.411 847.374,1426.411 864.002,1843.865 860.699,1843.997 
						843.934,1423.104 1138.151,1423.104 1154.911,1843.865 					"/>
				</g>
			</g>
		</g>
		<g>
			<g>
				<polygon fill="#BFB9B7" points="862.351,1708.182 1153.26,1708.182 1136.563,1289.009 845.654,1289.009 				"/>
			</g>
		</g>
		<g>
			<g>
				<polygon fill="#F2EBE9" points="1114.813,1708.182 823.905,1708.182 840.602,1289.009 1131.511,1289.009 				"/>
			</g>
		</g>
		<g>
			<g>
				<polygon fill="#3D8ED1" points="917.136,1581.901 913.967,1580.772 941.539,1503.424 1001.333,1487.606 1022.821,1402.71 
					1068.964,1382.344 1079.298,1316.331 1082.622,1316.851 1072.004,1384.681 1025.681,1405.126 1004.109,1490.353 
					944.113,1506.224 				"/>
			</g>
		</g>
		<g>
			<circle fill="#F5EEEC" cx="1002.721" cy="1488.979" r="8.973"/>
		</g>
		<g>
			<path fill="#3D8ED1" d="M1009.464,1497.229c-4.549,3.719-11.274,3.042-14.993-1.506c-3.718-4.55-3.042-11.276,1.507-14.994
				c4.549-3.719,11.275-3.042,14.994,1.507C1014.689,1486.786,1014.014,1493.512,1009.464,1497.229z M998.107,1483.335
				c-3.112,2.544-3.575,7.146-1.031,10.259c2.544,3.112,7.146,3.575,10.259,1.03c3.112-2.544,3.575-7.146,1.031-10.258
				C1005.821,1481.253,1001.22,1480.791,998.107,1483.335z"/>
		</g>
		<g>
			<circle fill="#F5EEEC" cx="1024.493" cy="1404.43" r="8.973"/>
		</g>
		<g>
			<path fill="#3D8ED1" d="M1031.236,1412.681c-4.549,3.719-11.275,3.043-14.993-1.507c-3.719-4.55-3.043-11.274,1.507-14.993
				c4.549-3.719,11.274-3.043,14.993,1.506C1036.462,1402.236,1035.786,1408.962,1031.236,1412.681z M1019.879,1398.786
				c-3.112,2.544-3.575,7.146-1.03,10.258c2.544,3.113,7.146,3.576,10.258,1.031c3.113-2.544,3.575-7.146,1.031-10.258
				C1027.594,1396.704,1022.992,1396.241,1019.879,1398.786z"/>
		</g>
		<g>
			<circle fill="#F5EEEC" cx="1069.925" cy="1383.485" r="8.973"/>
		</g>
		<g>
			<circle fill="#F5EEEC" cx="943.161" cy="1505.585" r="8.973"/>
		</g>
		<g>
			<path fill="#3D8ED1" d="M949.904,1513.835c-4.549,3.719-11.275,3.043-14.993-1.507c-3.719-4.549-3.043-11.274,1.507-14.993
				c4.549-3.719,11.274-3.043,14.993,1.507C955.13,1503.391,954.454,1510.117,949.904,1513.835z M938.547,1499.94
				c-3.112,2.544-3.575,7.146-1.031,10.258c2.545,3.113,7.146,3.576,10.26,1.031c3.112-2.543,3.574-7.146,1.03-10.259
				C946.262,1497.858,941.66,1497.396,938.547,1499.94z"/>
		</g>
		<g>
			<g>
				<g>
					<path fill="#DED7D5" d="M964.12,1398.405h-85.294c-1.254,0-2.27-1.016-2.27-2.268v-14.072c0-1.254,1.016-2.27,2.27-2.27h85.294
						c1.253,0,2.269,1.016,2.269,2.27v14.072C966.389,1397.39,965.373,1398.405,964.12,1398.405z"/>
				</g>
			</g>
		</g>
		<g>
			<g>
				<g>
					<path fill="#DED7D5" d="M964.12,1365.872h-85.294c-1.254,0-2.27-1.016-2.27-2.269v-14.072c0-1.253,1.016-2.27,2.27-2.27h85.294
						c1.253,0,2.269,1.017,2.269,2.27v14.072C966.389,1364.856,965.373,1365.872,964.12,1365.872z"/>
				</g>
			</g>
		</g>
		<g>
			<path fill="#3D8ED1" d="M1076.669,1391.735c-4.55,3.719-11.275,3.043-14.994-1.507c-3.718-4.55-3.042-11.275,1.507-14.993
				c4.55-3.719,11.275-3.043,14.994,1.507C1081.894,1381.29,1081.218,1388.017,1076.669,1391.735z M1065.312,1377.841
				c-3.113,2.543-3.575,7.146-1.031,10.258c2.544,3.113,7.146,3.575,10.259,1.031s3.575-7.146,1.031-10.258
				C1073.026,1375.759,1068.424,1375.296,1065.312,1377.841z"/>
		</g>
		<g>
			<g>
				<polygon fill="#3D8ED1" points="892.731,1656.606 890.708,1655.153 926.158,1605.786 971.925,1606.778 1004.593,1550.796 
					1041.581,1545.76 1062.449,1500.924 1064.707,1501.975 1043.266,1548.044 1006.132,1553.1 973.337,1609.301 927.415,1608.304 
									"/>
			</g>
		</g>
		<g>
			<circle fill="#F5EEEC" cx="972.631" cy="1608.04" r="6.641"/>
		</g>
		<g>
			<path fill="#3D8ED1" d="M975.738,1615.289c-3.997,1.713-8.643-0.146-10.356-4.143c-1.713-3.997,0.146-8.642,4.143-10.355
				c3.997-1.713,8.643,0.146,10.355,4.142C981.593,1608.93,979.735,1613.575,975.738,1615.289z M970.505,1603.08
				c-2.734,1.173-4.006,4.351-2.833,7.086c1.172,2.734,4.351,4.006,7.085,2.833c2.734-1.172,4.006-4.35,2.834-7.085
				C976.419,1603.18,973.24,1601.908,970.505,1603.08z"/>
		</g>
		<g>
			<circle fill="#F5EEEC" cx="1005.429" cy="1552.362" r="6.641"/>
		</g>
		<g>
			<path fill="#3D8ED1" d="M1008.536,1559.611c-3.997,1.713-8.643-0.146-10.355-4.142c-1.713-3.997,0.145-8.643,4.142-10.355
				c3.997-1.714,8.643,0.145,10.355,4.142C1014.392,1553.253,1012.533,1557.897,1008.536,1559.611z M1003.304,1547.403
				c-2.735,1.172-4.006,4.35-2.834,7.085s4.351,4.006,7.085,2.834c2.735-1.173,4.007-4.351,2.834-7.085
				C1009.217,1547.502,1006.038,1546.23,1003.304,1547.403z"/>
		</g>
		<g>
			<circle fill="#F5EEEC" cx="1042.032" cy="1546.768" r="6.641"/>
		</g>
		<g>
			<circle fill="#F5EEEC" cx="926.869" cy="1607.654" r="6.641"/>
		</g>
		<g>
			<path fill="#3D8ED1" d="M929.976,1614.903c-3.997,1.713-8.643-0.145-10.355-4.143c-1.713-3.996,0.145-8.642,4.142-10.354
				c3.997-1.714,8.643,0.145,10.355,4.142C935.831,1608.545,933.973,1613.19,929.976,1614.903z M924.743,1602.694
				c-2.735,1.173-4.006,4.352-2.834,7.086s4.351,4.006,7.085,2.834c2.735-1.172,4.007-4.351,2.834-7.086
				C930.656,1602.794,927.478,1601.522,924.743,1602.694z"/>
		</g>
		<g>
			<path fill="#3D8ED1" d="M1045.139,1554.017c-3.997,1.713-8.643-0.145-10.355-4.142s0.145-8.643,4.142-10.355
				s8.643,0.145,10.355,4.142C1050.994,1547.658,1049.136,1552.304,1045.139,1554.017z M1039.906,1541.809
				c-2.735,1.172-4.006,4.351-2.834,7.085c1.172,2.735,4.351,4.006,7.085,2.834c2.735-1.172,4.007-4.351,2.834-7.085
				C1045.819,1541.907,1042.641,1540.636,1039.906,1541.809z"/>
		</g>
		<g>
			<g>
				<g>
					<path fill="#EEA886" d="M831.711,1304.884c0,0,9.481-2.976,10.246-8.596c0.649-4.779,4.94-10.486,6.259-12.245
						c1.763-2.354,4.482-11.593,7.472-9.399c2.99,2.193-3.75,15.447-4.608,18.509c-0.857,3.062,12.112-2.765,15.322-1.964
						c3.209,0.803,11.642,22.832,2.277,25.801c-9.365,2.968-21.328-0.042-22.872,0.807c-1.543,0.849-6.728,2.429-6.728,2.429
						L831.711,1304.884z"/>
				</g>
			</g>
		</g>
		<g>
			<g>
				<g>
					<path fill="#EEA886" d="M864.052,1291.366c0,0,29.271-7.184,31.623-6.029s2.646,2.764-0.062,3.549
						c-2.709,0.785-28.082,7.76-28.082,7.76s36.074-2.682,38.208-2.156c1.249,0.307,2.006,3.388,0.595,3.943
						c-1.411,0.555-37.015,5.256-37.015,5.256s33.688-2.443,35.341-1.471c1.446,0.848,1.432,3.851-1.054,4.203
						c-2.485,0.354-33.623,4.387-33.623,4.387s24.63-0.235,25.544,1.41c0.56,1.006,1.338,3.639-5.02,3.501
						c-6.358-0.138-21.39,1.112-21.39,1.112L864.052,1291.366z"/>
				</g>
			</g>
		</g>
		<g>
			<path fill="#FFC355" d="M692.664,1273.327c0,0,7.603,13.418,17.768,28.508c0.938,1.387,1.895,2.793,2.867,4.198
				c0,0,0,0.011,0.007,0.017c1.324,1.906,2.672,3.818,4.048,5.719c1.642,2.27,3.317,4.521,5.011,6.715
				c9.428,12.228,19.351,22.623,26.878,24.478c16.299,4.009,98.183-14.146,98.183-14.146l-6.329-32.193
				c0,0-28.71,9.773-47.894,11.375c-11.766,0.979-26.44,4.844-28.18,3.749c-1.745-1.089-35.327-49.529-37.723-54.753
				c-2.401-5.229-13.137-25.731-22.288-35.527c-9.146-9.803-19.098-6.071-19.098-6.071
				C658.478,1233.254,692.664,1273.327,692.664,1273.327z"/>
		</g>
		<g>
			<path fill="#202338" d="M729.669,1818.683c0,0,12.663,13.299,25.52,16.084c12.856,2.787,21.85,6.341,21.946,13.972
				c0.097,7.63-36.998,12.659-51.711,4.966c-21.957-11.48-24.189-8.02-26.624-13.759s2.925-21.086,2.767-22.911
				C701.37,1814.778,729.669,1818.683,729.669,1818.683z"/>
		</g>
		<g>
			<path fill="#2F6B8C" d="M728.245,1812.321c0,0,1.672,6.229,1.424,6.361c-0.249,0.132-28.972,3.351-28.103-1.648
				c0.704-4.055,1.71-8.461,1.71-8.461L728.245,1812.321z"/>
		</g>
		<g>
			<path fill="#292C47" d="M699.274,1438.178c0,0,13.302,96.619,18.734,129.282c6.352,38.189,8.505,69.744,10.276,89.511
				c2.228,24.861,5.185,152.093,6.744,159.361c1.56,7.271-38.745,3.491-38.745,3.491s-21.111-165.866-27.748-192.344
				c-6.179-24.653-24.17-131.144-29.808-124.412c-5.638,6.732-29.745,128.237-33.921,147.682
				c-4.175,19.443-27.527,175.383-27.527,175.383s-25.003,4.536-40.159-3.112c0,0,11.754-136.392,14.414-172.847
				c1.014-13.893,3.488-166.528,26.98-227.996C590.932,1389.692,699.274,1438.178,699.274,1438.178z"/>
		</g>
		<path fill="#FFC355" d="M660.248,1206.456c0,0,35.198,7.277,39.374,10.977c4.534,3.938,12.53,42.486,13.007,53.225
			c0.478,10.739-4.243,55.596-8.776,72.301c-4.534,16.704-2.889,98.877-0.025,122.024c0,0-52.152,23.357-140.191,2.159
			c0,0,15.328-76.193,12.539-99.084c-3.572-29.322-10.601-101.285-10.601-101.285s-0.217-44.021,5.987-49.271
			s51.867-11.045,51.867-11.045H660.248z"/>
		<path fill="#FFC355" d="M591.444,1215.391c0,0,22.048,6.072,9.918,46.541c-9.502,31.697-10.784,38.503-10.784,38.503
			l-50.878-12.708c0,0,13.019-66.958,37.378-72.716C577.078,1215.011,586.713,1213.255,591.444,1215.391z"/>
		<path fill="#A67F37" d="M710.432,1301.835c0.938,1.387,1.895,2.793,2.867,4.198c0,0,0,0.011,0.007,0.017
			c1.324,1.906,2.672,3.818,4.048,5.719c1.037-18.844-3.916-44.996-3.916-44.996
			C714.388,1275.532,710.432,1301.835,710.432,1301.835z"/>
		<path fill="#FFC355" d="M662.791,1201.328c0,0-21.758,6.398-39.983-1.132l-1.259,8.912c0,0,24.443,9.285,43.545,5.033
			L662.791,1201.328z"/>
		<path fill="#EEA886" d="M538.03,1463.72c0,0,1.858,11.389,3.396,13.525c1.537,2.138,5.553,12.789,5.949,14.283
			c0.396,1.494,2.751,12.201,3.163,13.559c0.413,1.357-2.67,3.376-4.664,0.477c-1.24-1.803-3.308-8.751-4.164-10.997
			c-0.857-2.246-3.486-9.353-4.284-8.091c-0.797,1.26-0.869,10.695-1.062,13.115s1.145,9.92,1.782,13.027s4.39,16.16,2.725,16.813
			s-3.053,0.422-5.082-3.109c0,0-3.419,1.793-5.267-2.521c0,0-3.042,1.007-4.756-4.596c0,0-2.109-1.235-2.885-3.249
			s-5.19-19.17-4.959-26.112c0.232-6.942,1.993-11.735,1.831-16.645c-0.161-4.908-2.388-15.459-2.388-15.459L538.03,1463.72z"/>
		<g>
			<path fill="#FFC355" d="M544.038,1475.741c0,0-12.14,1.918-29.588,0.454c0,0,9.879-112.245,9.372-118.585
				c-0.469-5.868,22.661-110.156,35.366-125.959l19.327,61c-1.471-0.471-21.036,62.205-21.307,68.66
				C556.845,1369.963,544.038,1475.741,544.038,1475.741z"/>
		</g>
		<path fill="#FCCCA2" d="M678.169,1127.188c0.963-13.074-0.01-23.883-1.707-30.559c-2.093-8.229-15.407-5.971-15.407-5.971
			l0.001,0.004c-20.306-6.084-32.547-3.286-40.237,0.007c-11.517,9.435-12.392,25.492-11.867,34.337
			c0.23,2.094,0.471,4.201,0.706,6.252c0.005,0.042,0.01,0.063,0.01,0.063c1.041,8.793,2.101,16.443,2.101,16.443l3.66,4.225
			c0,0-0.94-14.645,1.311-15.469c1.211-0.443,1.501-3.4,1.509-6.037c0.014-2.269-0.185-4.303-0.185-4.303
			c23.481-10.811,49.847-3.11,50.436-1.613c0.369,0.936,0.906,3.747,1.433,6.237c0.32,1.509,0.632,2.902,0.896,3.689
			c0.699,2.077,0.429,15.294,0.429,15.294l4.576-5.979c0,0,0.583-2.854,1.335-7.147l0,0c0-0.001,0-0.001,0-0.002
			c0.245-1.396,0.507-2.942,0.772-4.595C677.939,1132.065,678.138,1130.195,678.169,1127.188z"/>
	</g>
	<g>
		<g>
			<g>
				
					<rect x="1838.735" y="1693.216" transform="matrix(0.0674 0.9977 -0.9977 0.0674 3465.2891 -319.3435)" fill="#81A358" width="129.465" height="1.522"/>
			</g>
			<g>
				
					<rect x="1699.746" y="1580.026" transform="matrix(0.0604 0.9982 -0.9982 0.0604 3339.9624 -386.4403)" fill="#81A358" width="350.983" height="1.522"/>
			</g>
			<g>
				<rect x="1894.651" y="1354.757" fill="#81A358" width="1.521" height="408.703"/>
			</g>
			<g>
				
					<rect x="1911.408" y="1515.77" transform="matrix(0.9997 0.0225 -0.0225 0.9997 37.2736 -42.5322)" fill="#81A358" width="1.522" height="244.763"/>
			</g>
			<g>
				<path fill="#71A334" d="M1894.521,1438.356c0,0-42.484-36.228-29.875-72.386c12.609-36.157,74.857-16.588,55.082,48.645
					C1919.728,1414.615,1913.3,1431.44,1894.521,1438.356z"/>
			</g>
			<g>
				<polygon fill="#60892C" points="1907.496,1420.13 1905.979,1420.001 1909.271,1381.21 1911.286,1375.452 				"/>
			</g>
			<g>
				<polygon fill="#60892C" points="1886.59,1421.06 1885.068,1421.028 1886.31,1359.72 1887.634,1369.487 				"/>
			</g>
			<g>
				<polygon fill="#60892C" points="1878.731,1411.066 1871.327,1368.998 1874.009,1375.452 1880.229,1410.803 				"/>
			</g>
			<g>
				<path fill="#86BC44" d="M1867.672,1497.821c0,0-36.819-47.657-17.653-81.336c19.166-33.68,142.517-5.838,86.752,115.703
					c-55.766,121.541-98.856,39.791-98.856,39.791L1867.672,1497.821z"/>
			</g>
			<g>
				<polygon fill="#7BA840" points="1899.923,1584.622 1898.452,1584.231 1931.906,1458.362 1935.894,1449.285 				"/>
			</g>
			<g>
				<polygon fill="#7BA840" points="1889.344,1572.645 1887.823,1572.575 1894.265,1430.712 1896.151,1422.709 				"/>
			</g>
			<g>
				<polygon fill="#7BA840" points="1874.478,1526.116 1868.156,1424.679 1870.212,1433.19 1875.997,1526.022 				"/>
			</g>
			<g>
				<path fill="#70A333" d="M1895.412,1540.669c0,0-5.548-81.768-52.454-51.646c-46.906,30.119-58.508,148.189,52.454,184.068
					V1540.669z"/>
			</g>
			<g>
				<polygon fill="#699331" points="1902.765,1619.271 1855.263,1504.485 1852.894,1494.78 1904.171,1618.688 				"/>
			</g>
			<g>
				<path fill="#699331" d="M1910.5,1627.367c-4.253-0.154-11.267-5.458-21.441-16.214c-7.931-8.383-17.693-20.02-29.02-34.586
					c-19.27-24.785-31.091-41.949-31.264-42.199l-4.285-8.732c0.173,0.25,17.509,25.25,36.754,50.002
					c32.02,41.182,44.489,50.034,49.312,50.209L1910.5,1627.367z"/>
			</g>
			<g>
				<path fill="#699331" d="M1917.604,1642.786c-9.777,0-29.781-10.865-59.455-32.294c-22.025-15.906-41.468-32.021-41.662-32.182
					l6.093,3.001c7.401,6.006,72.379,59.953,95.024,59.953V1642.786z"/>
			</g>
			<g>
				<path fill="#699331" d="M1851.272,1637.557c1.164,0.637,8.26,1.814,26.563,4.968c10.199,1.758,35.076,5.873,45.759,6.133
					l-0.036,1.521c-10.929-0.267-36.293-4.479-46.691-6.277c-8.442-1.46-17.005-3.049-23.491-4.359
					c-10.373-2.096-10.74-2.483-10.983-2.74L1851.272,1637.557z"/>
			</g>
			<g>
				<path fill="#B1D045" d="M1910.466,1720.054c0,0-38.76-40.842-29.681-103.59c9.079-62.749,79.69-62.68,79.187-1.722
					C1959.468,1675.699,1946.688,1692.653,1910.466,1720.054z"/>
			</g>
			<g>
				<polygon fill="#9EB24E" points="1913.51,1715.106 1912.17,1714.743 1931.513,1586.455 1934.259,1577.83 1914.93,1706.684 
					1952.11,1600.782 1952.396,1604.68 				"/>
			</g>
			<g>
				<polygon fill="#9EB24E" points="1910.071,1716.071 1889.308,1616.803 1889.132,1609.159 1909.725,1706.873 1904.216,1583.146 
					1906.462,1595.792 1911.476,1715.675 				"/>
			</g>
			<linearGradient id="SVGID_6_" gradientUnits="userSpaceOnUse" x1="1843.4619" y1="1795.0986" x2="1947.3623" y2="1795.0986">
				<stop  offset="0" style="stop-color:#BAD0DE"/>
				<stop  offset="1" style="stop-color:#F5F2FF"/>
			</linearGradient>
			<polygon fill="url(#SVGID_6_)" points="1947.362,1756.004 1922.827,1834.193 1867.997,1834.193 1843.462,1756.004 			"/>
			<defs>
				<filter id="Adobe_OpacityMaskFilter" filterUnits="userSpaceOnUse" x="1843.462" y="1756.004" width="103.9" height="78.189">
					<feFlood  style="flood-color:white;flood-opacity:1" result="back"/>
					<feBlend  in="SourceGraphic" in2="back" mode="normal"/>
				</filter>
			</defs>
			<mask maskUnits="userSpaceOnUse" x="1843.462" y="1756.004" width="103.9" height="78.189" id="SVGID_7_">
				<g filter="url(#Adobe_OpacityMaskFilter)">
					<defs>
						
							<filter id="Adobe_OpacityMaskFilter_1_" filterUnits="userSpaceOnUse" x="1843.462" y="1756.004" width="103.9" height="78.189">
							<feFlood  style="flood-color:white;flood-opacity:1" result="back"/>
							<feBlend  in="SourceGraphic" in2="back" mode="normal"/>
						</filter>
					</defs>
					<mask maskUnits="userSpaceOnUse" x="1843.462" y="1756.004" width="103.9" height="78.189" id="SVGID_7_">
						<g filter="url(#Adobe_OpacityMaskFilter_1_)">
						</g>
					</mask>
					<linearGradient id="SVGID_8_" gradientUnits="userSpaceOnUse" x1="1843.4619" y1="1795.0986" x2="1947.3623" y2="1795.0986">
						<stop  offset="0" style="stop-color:#FFFFFF"/>
						<stop  offset="0.9948" style="stop-color:#000000"/>
					</linearGradient>
					<path mask="url(#SVGID_7_)" fill="url(#SVGID_8_)" d="M1947.362,1756.004c0,0-54.014,8.519-54.014,78.189h-25.352
						l-24.535-78.189H1947.362z"/>
				</g>
			</mask>
			<linearGradient id="SVGID_9_" gradientUnits="userSpaceOnUse" x1="1843.4619" y1="1795.0986" x2="1947.3623" y2="1795.0986">
				<stop  offset="0" style="stop-color:#9FA0AD"/>
				<stop  offset="0.9948" style="stop-color:#55B5FF"/>
			</linearGradient>
			<path fill="url(#SVGID_9_)" d="M1947.362,1756.004c0,0-54.014,8.519-54.014,78.189h-25.352l-24.535-78.189H1947.362z"/>
			<path fill="#454342" d="M1858.785,1840.303v-0.007c0.003-0.013,0.005-0.025,0.008-0.039L1858.785,1840.303z"/>
		</g>
		<path fill="#EEA886" d="M1569.841,1450.312c0,0,7.795,1.568,11.521,1.687c3.728,0.117,20.968-7.7,26.484-6.955
			c5.516,0.744,41.497,16.03,43.13,17.146c1.634,1.115-0.768,3.573-0.768,3.573l-82.604,0.979L1569.841,1450.312z"/>
		<rect x="1375.253" y="1617.721" fill="#918783" width="13.804" height="174.233"/>
		<path fill="#1D3B54" d="M1555.425,1771.408c0,0,0.138,7.698,2.636,16.668c1.831,6.577,5.513,32.041,10.213,35.604
			c4.7,3.562,19.858,13.001,17.632,22.698c-2.227,9.696-4.111,16.464-20.477,10.721c-16.365-5.744-27.309-9.029-30.453-23.394
			c-3.144-14.364-12.101-27.443-12.101-27.443l-11.83,29.425l-6.238-2.509c0,0,9.434-31.781,8.622-34.616
			s4.324-28.086,24.121-34.342C1557.346,1757.965,1555.425,1771.408,1555.425,1771.408z"/>
		<path fill="#1D3B54" d="M1664.754,1780.687c0,0,2.999,7.092,8.663,14.482c4.153,5.419,17.068,27.672,22.758,29.223
			c5.689,1.552,23.275,4.655,24.827,14.482s2.327,16.81-15,17.586c-17.327,0.775-28.705,1.811-36.981-10.345
			c-8.275-12.155-21.464-20.948-21.464-20.948v31.714h-6.724c0,0-3.104-33.006-4.914-35.334c-1.811-2.327-6.465-27.671,9.568-40.86
			C1661.521,1767.498,1664.754,1780.687,1664.754,1780.687z"/>
		<path fill="#EEA886" d="M1488.571,1349.745c0,0,3.852-13.658,4.228-15.438c0.377-1.78,4.021-5.315,8.559-9.013
			c4.538-3.695,12.324-6.658,13.288-6.359c0.964,0.301,2.077,0.155,3.666,2.201c1.59,2.046,1.809,4.648,1.809,4.648
			s3.145,1.601,3.171,4.829c0,0,2.89,1.642,2.321,5.313c0,0,2.778,1.678,2.139,4.311c0,0-3.646,3.551-4.617,5.254
			c-0.97,1.704-9.061,8.569-17.835,13.959C1505.299,1359.45,1494.101,1367.719,1488.571,1349.745z"/>
		<path fill="#1D3B54" d="M1353.57,1373.228c5.444-8.814,12.702-12.782,35.765,3.168c23.063,15.949,17.645,12.825,23.166,17.88
			s29.718,17.704,29.718,17.704s14.134-14.054,20.913-24.035c7.641-11.25,23.59-41.307,23.59-41.307l22.362,16.647
			c0,0-43.446,78.768-52.519,84.591c-9.073,5.822-36.415-3.915-50.648-9.914s-29.303-13.757-35.803-15.37
			S1339.374,1396.216,1353.57,1373.228z"/>
		<path fill="#DB9C7C" d="M1513.418,1319.859c0,0-11.272,9.649-9.943,11.657s3.036,1.938,3.036,1.938l-2.838,6.077
			c0,0,0.392,5.084,5.815,3.172c0,0-0.126,4.785,4.891,2.314c0,0,1.325,3.195,3.851,2.461c2.525-0.733,9.521-7.242,9.521-7.242
			s0.86-2.039-2.139-4.311c0,0,0.753-3.486-2.321-5.313c0,0,0.167-2.885-3.171-4.829c0,0-0.133-6.461-5.475-6.85
			C1514.646,1318.935,1513.89,1319.448,1513.418,1319.859z"/>
		<path fill="#152C3D" d="M1461.071,1421.069c0,0,4.544-16.458-0.807-29.197c0,0,2.035,13.188-3.74,22.566
			C1452.34,1421.233,1461.071,1421.069,1461.071,1421.069z"/>
		<path fill="#EEA886" d="M1633.876,1604.109c0,0-20.626,46.403-35.347,79.521c-2.473,5.575-4.782,10.77-6.799,15.302
			c-2.359,5.313-4.32,9.714-5.669,12.755c-9.37,21.081-32.42,67.053-32.42,67.053s-17.344,0.662-18.349-14.064
			c0,0,16.64-31.907,16.64-54.325c0-22.424,3.009-88.467,24.428-102.744C1602.48,1590.194,1619.442,1586.897,1633.876,1604.109z"/>
		<path fill="#EEA886" d="M1443.165,1515.909c0,0,4.351,4.351,8.031,5.354c3.682,1.004,65.26,5.689,93.705,15.061
			c28.446,9.37,66.264,15.394,73.291,23.426s18.741,52.207,18.406,60.573c-0.335,8.367,24.999,149.36,28.155,160.363
			c1.673,5.832-22.911,3.6-22.911,3.6s-34.931-83.313-42.392-98.704c-13.707-28.277-14.39-62.916-19.41-68.271
			c-5.02-5.354-60.908-17.402-93.036-17.402c-32.127,0-104.079,2.678-111.776-1.674c-7.696-4.35-55.888-36.143-35.809-78.645
			C1359.5,1477.089,1443.165,1515.909,1443.165,1515.909z"/>
		<path fill="#FFC355" d="M1581.841,1547.017l-50.679,97.404c0,0-15.352-36.396-42.138-42.66
			c-26.787-6.264-133.686-2.903-133.686-2.903s-49.054-62.054-7.047-94.604s91.063,5.123,91.063,5.123s10.136,10.983,15.038,11.229
			C1459.294,1520.849,1498.404,1520.292,1581.841,1547.017z"/>
		<path fill="#EEA886" d="M1696.175,1824.392c0,0-15.517,3.88-21.465,0c-5.947-3.879-26.169-38.058-32.867-40.105
			c0,0,6.489-13.168,22.911-3.6C1664.754,1780.687,1691.778,1818.702,1696.175,1824.392z"/>
		<path fill="#EEA886" d="M1568.273,1823.68c0,0-15.844-2.19-19.915-8.008c-4.071-5.818-10.083-45.072-15.534-49.472
			c0,0,10.934-9.796,22.601,5.208C1555.425,1771.408,1566.317,1816.761,1568.273,1823.68z"/>
		<path fill="#EEA886" d="M1415.634,1303.774c0,0-0.956,3.102-2.042,7.707c-0.556,2.353-1.144,5.095-1.655,8.013
			c-1.41,8.077-2.238,17.517-0.146,23.802c0,0-17.18,5.953-30.754-18.328c0,0,5.829-26.161-1.746-42.023
			C1371.717,1267.087,1415.634,1303.774,1415.634,1303.774z"/>
		<path fill="#A77860" d="M1413.992,1310.351c-0.556,2.353-1.544,6.226-2.056,9.144c-15.957-10.13-21.334-27.187-21.334-27.187
			C1399.723,1300.554,1413.992,1310.351,1413.992,1310.351z"/>
		<path fill="#1D3B54" d="M1460.167,1404.28c-3.617,16.759-13.132,17.639-12.555,30.018c0.578,12.381,4.274,13.444-2.129,32.965
			c-1.185,3.614-2.147,7.549-2.924,11.564c-0.089,0.475-0.185,0.951-0.267,1.43c-0.417,2.254-0.771,4.521-1.082,6.765
			c-0.569,4.144-0.979,8.19-1.265,11.882c-0.754,9.633,6.341,17.071,6.341,17.071s-62.641,37.53-105.646,32.262
			c0,0,11.135-46.798,17.266-62.871s4.28-90.356-0.23-106.297c-6.658-23.524,6.643-58.792,24.824-63.384l28.191,13.057
			c0,0,28.398,33.912,34.769,39.029C1451.827,1372.896,1463.839,1387.283,1460.167,1404.28z"/>
		<path fill="#1D3B54" d="M1366.981,1335.61c7.961-6.63,19.482-17.979,36.287,4.469s29.031,36.914,32.662,43.461
			c3.631,6.545,35.221,52.148,35.221,52.148s30.925,3.313,42.921,4.614c15.145,1.645,68.791,6.854,68.791,6.854l1.498,22.804
			c0,0-94.645,0.492-105.097,3.133s-39.727-23.698-51.318-33.906c-11.593-10.207-44.122-47.381-49.773-50.974
			C1372.522,1384.62,1346.222,1352.901,1366.981,1335.61z"/>
		<path fill="#A77860" d="M1598.529,1683.63c-2.473,5.575-4.782,10.77-6.799,15.302c-7.585-24.391-6.961-65.156-6.961-65.156
			C1589.327,1662.198,1598.392,1683.306,1598.529,1683.63z"/>
		<linearGradient id="SVGID_10_" gradientUnits="userSpaceOnUse" x1="1372.2588" y1="1659.6729" x2="1439.5216" y2="1259.4597">
			<stop  offset="0" style="stop-color:#E36C44"/>
			<stop  offset="1" style="stop-color:#F75A5A"/>
		</linearGradient>
		<rect x="1271.921" y="1598.857" fill="url(#SVGID_10_)" width="217.104" height="23.894"/>
		<linearGradient id="SVGID_11_" gradientUnits="userSpaceOnUse" x1="1406.3535" y1="1665.4033" x2="1473.6163" y2="1265.1903">
			<stop  offset="0" style="stop-color:#E36C44"/>
			<stop  offset="1" style="stop-color:#F75A5A"/>
		</linearGradient>
		<path fill="url(#SVGID_11_)" d="M1384.891,1522.648c0,0-5.473,22.136,20.298,27.165c25.771,5.031,57.463,11.452,57.463,51.207
			h-89.378L1384.891,1522.648z"/>
		<linearGradient id="SVGID_12_" gradientUnits="userSpaceOnUse" x1="1280.5898" y1="1644.2666" x2="1347.8529" y2="1244.0524">
			<stop  offset="0" style="stop-color:#E36C44"/>
			<stop  offset="1" style="stop-color:#F75A5A"/>
		</linearGradient>
		<path fill="url(#SVGID_12_)" d="M1271.921,1622.751l-75.9-318.993c0,0,137.215-21.437,153.563,40.183
			s43.24,244.647,75.936,255.965C1458.215,1611.224,1271.921,1622.751,1271.921,1622.751z"/>
		<path fill="#152C3D" d="M1448.41,1456.612c0,0-1.398,5.854-2.891,10.697l-33.384-43.295L1448.41,1456.612z"/>
		<polygon fill="#1D3B54" points="1412.317,1330.675 1412.317,1323.774 1383.026,1309.512 1372.892,1321.22 		"/>
		<circle fill="#BFB2AC" cx="1504.806" cy="1836.935" r="11.35"/>
		<polygon fill="#918783" points="1260.57,1825.688 1263.445,1833.774 1384.891,1796.145 1379.07,1779.772 		"/>
		<polygon fill="#918783" points="1504.807,1825.688 1501.932,1833.774 1380.486,1796.145 1385.823,1778.744 		"/>
		<polygon fill="#918783" points="1419.239,1832.909 1419.239,1842.314 1380.486,1796.145 1385.823,1778.744 		"/>
		<circle fill="#BFB2AC" cx="1408.854" cy="1836.935" r="11.35"/>
		<circle fill="#BFB2AC" cx="1260.571" cy="1836.935" r="11.35"/>
		<polygon fill="#FFD1A1" points="1525.487,1301.798 1532.567,1331.546 1536.918,1349.823 1516.057,1358.164 1506.607,1341.925 
			1491.227,1315.496 		"/>
		<polygon fill="#B37952" points="1532.567,1331.546 1536.918,1349.823 1516.057,1358.164 1506.607,1341.925 		"/>
		
			<rect x="1489.78" y="1301.525" transform="matrix(0.9285 -0.3713 0.3713 0.9285 -376.7513 652.6816)" fill="#B37952" width="34.149" height="6.727"/>
		
			<rect x="1489.21" y="1306.071" transform="matrix(0.9285 -0.3712 0.3712 0.9285 -378.0574 653.4949)" fill="#B37952" width="38.362" height="5.322"/>
		<path fill="#EEA886" d="M1492.956,1334.454c0,0,7.552-6.832,13.313-8.75c1.304-0.435,2.646-0.617,3.54,0.429
			s0.515,3.67-2.605,6.796c-3.12,3.127-5.723,8.596-5.723,8.596S1497.332,1343.798,1492.956,1334.454z"/>
		<path fill="#323657" d="M1397.973,1209.448c-12.93,2.877-5.223,35.34-13.888,80.728c-8.666,45.388-36.021,52.481-36.021,52.481
			s12.147-20.125,10.818-41.168c-1.038-16.443-20.956-61.301-1.268-90.623c15.212-22.654,42.015-2.088,42.015-2.088
			L1397.973,1209.448z"/>
		<path fill="#EEA886" d="M1419.465,1212.087c11.636,0.775,36.627,9.561,37.039,40.682c0,0-1.881,8.161-4.638,14.425
			c-2.756,6.263,0.852,26.087-0.776,26.855s-8.043,1.251-8.043,1.251s-9.167,20.143-16.491,19.115
			c-7.324-1.028-34.466-9.98-44.555-37.522S1372.481,1208.95,1419.465,1212.087z"/>
		<path fill="#323657" d="M1456.504,1252.769c0,0-20.262,10.637-39.202,11.068c-18.94,0.433-34.465,30.796-34.465,30.796
			s-22.933-51.449,3.33-77.554C1412.351,1191.053,1464.686,1217.521,1456.504,1252.769z"/>
		<path fill="#EEA886" d="M1412.873,1263.653c0.315-3.621-3.075-9.5-9.558-5.252c-6.483,4.248-0.513,22.326,4.527,21.205
			C1412.883,1278.483,1412.547,1267.395,1412.873,1263.653z"/>
		<path fill="#D6985E" d="M1583.792,1477.587v7.169h341.792v-7.169c0-6.682-4.493-12.1-10.034-12.1h-321.722
			C1588.286,1465.487,1583.792,1470.905,1583.792,1477.587z"/>
		<path fill="#807066" d="M1802.929,1834.391h103.283v-16.521h-96.415c-3.794,0-6.868,3.074-6.868,6.868V1834.391z"/>
		<rect x="1886.003" y="1484.756" fill="#807066" width="13.65" height="349.635"/>
		<rect x="1858.581" y="1484.756" fill="#807066" width="13.65" height="349.635"/>
		<rect x="1761.718" y="1264.393" fill="#6E6760" width="8.034" height="178.06"/>
		<g>
			<path fill="#918880" d="M1781.414,1465.487h60.106v-3.644h-60.106c-3.133,0-5.388-0.745-6.701-2.215
				c-1.585-1.772-1.339-4.155-1.336-4.179l0.016-0.116l-0.002-0.103v-77.67h-3.644v77.582c-0.064,0.743-0.205,4.124,2.204,6.862
				C1773.983,1464.315,1777.167,1465.487,1781.414,1465.487z"/>
		</g>
		<path fill="#6E6760" d="M1699.261,1459.107h63.691v6.38h-67.656v-2.415C1695.296,1460.882,1697.071,1459.107,1699.261,1459.107z"
			/>
		<path fill="#BC8551" d="M1728.815,1484.756h196.769v-7.169c0-6.682-4.624-12.1-10.327-12.1h-155.635L1728.815,1484.756z"/>
	</g>
	<g>
		<g>
			<path opacity="0.72" fill="#D9D9D9" d="M1608.669,586.305h-278.774c-2.309,0-4.181-1.872-4.181-4.181v-17.41
				c0-2.309,1.872-4.181,4.181-4.181h278.774c2.31,0,4.182,1.872,4.182,4.181v17.41
				C1612.851,584.433,1610.979,586.305,1608.669,586.305z"/>
			<path opacity="0.72" fill="#D9D9D9" d="M1648.701,627.972h-318.807c-2.309,0-4.181-1.871-4.181-4.181v-17.41
				c0-2.31,1.872-4.181,4.181-4.181h318.807c2.309,0,4.181,1.872,4.181,4.181v17.41
				C1652.882,626.101,1651.01,627.972,1648.701,627.972z"/>
		</g>
		<path fill="#FFC355" d="M1221.384,635.744h63.597c5.354,0,9.693-4.34,9.693-9.693v-63.597c0-5.354-4.34-9.693-9.693-9.693h-63.597
			c-5.354,0-9.693,4.34-9.693,9.693v63.597C1211.69,631.404,1216.03,635.744,1221.384,635.744z"/>
		<g>
			<path opacity="0.72" fill="#D9D9D9" d="M1537.905,703.983h-208.566c-2.002,0-3.625-1.623-3.625-3.625v-18.522
				c0-2.002,1.623-3.625,3.625-3.625h208.566c2.002,0,3.625,1.623,3.625,3.625v18.522
				C1541.53,702.361,1539.907,703.983,1537.905,703.983z"/>
			<path opacity="0.72" fill="#D9D9D9" d="M1587.4,745.651h-257.921c-2.08,0-3.766-1.686-3.766-3.766v-18.24
				c0-2.08,1.686-3.766,3.766-3.766H1587.4c2.08,0,3.766,1.686,3.766,3.766v18.24C1591.166,743.965,1589.48,745.651,1587.4,745.651z
				"/>
		</g>
		<g>
			<path fill="#FFFFFF" d="M1243.499,600.582c0-1.076,0.07-2.106,0.211-3.089c0.14-0.982,0.408-1.93,0.807-2.843
				c0.397-0.913,0.971-1.766,1.72-2.563c0.748-0.795,1.731-1.521,2.949-2.176c0.607-0.327,1.415-0.76,2.422-1.299
				c1.006-0.537,1.988-1.158,2.948-1.86c0.959-0.703,1.79-1.51,2.492-2.422c0.702-0.913,1.053-1.931,1.053-3.054
				c0-1.545-0.562-2.75-1.685-3.616c-1.123-0.866-2.411-1.299-3.861-1.299c-0.937,0-1.767,0.176-2.492,0.526
				c-0.726,0.351-1.381,0.772-1.966,1.264c-0.586,0.491-1.088,1.042-1.509,1.649c-0.422,0.609-0.797,1.148-1.123,1.615l-7.231-5.055
				c1.217-2.854,3.147-5.078,5.792-6.669c2.644-1.59,5.627-2.387,8.951-2.387c1.777,0,3.556,0.258,5.335,0.772
				c1.778,0.516,3.37,1.334,4.773,2.458c1.404,1.123,2.551,2.574,3.44,4.352c0.888,1.779,1.333,3.932,1.333,6.459
				c0,2.667-0.55,4.903-1.649,6.704c-1.101,1.802-2.727,3.382-4.879,4.739c-0.982,0.656-1.978,1.24-2.983,1.755
				c-1.007,0.516-1.931,1.053-2.773,1.615c-0.842,0.562-1.521,1.193-2.035,1.895c-0.516,0.702-0.772,1.544-0.772,2.527H1243.499z
				 M1243.71,617.782v-10.531h9.196v10.531H1243.71z"/>
		</g>
		<path fill="#FFC355" d="M1221.384,752.883h63.597c5.354,0,9.693-4.339,9.693-9.693v-63.597c0-5.354-4.34-9.693-9.693-9.693
			h-63.597c-5.354,0-9.693,4.34-9.693,9.693v63.597C1211.69,748.543,1216.03,752.883,1221.384,752.883z"/>
		<g>
			<path fill="#FFFFFF" d="M1243.499,717.721c0-1.076,0.07-2.105,0.211-3.088c0.14-0.983,0.408-1.93,0.807-2.843
				c0.397-0.913,0.971-1.766,1.72-2.563c0.748-0.795,1.731-1.52,2.949-2.176c0.607-0.327,1.415-0.76,2.422-1.299
				c1.006-0.537,1.988-1.158,2.948-1.86c0.959-0.703,1.79-1.51,2.492-2.422c0.702-0.913,1.053-1.931,1.053-3.054
				c0-1.544-0.562-2.749-1.685-3.615c-1.123-0.866-2.411-1.299-3.861-1.299c-0.937,0-1.767,0.176-2.492,0.526
				c-0.726,0.351-1.381,0.772-1.966,1.264c-0.586,0.491-1.088,1.042-1.509,1.649c-0.422,0.609-0.797,1.148-1.123,1.615l-7.231-5.055
				c1.217-2.854,3.147-5.078,5.792-6.669c2.644-1.59,5.627-2.387,8.951-2.387c1.777,0,3.556,0.257,5.335,0.772
				c1.778,0.516,3.37,1.334,4.773,2.457c1.404,1.123,2.551,2.574,3.44,4.353c0.888,1.779,1.333,3.931,1.333,6.458
				c0,2.667-0.55,4.903-1.649,6.704c-1.101,1.802-2.727,3.382-4.879,4.739c-0.982,0.656-1.978,1.24-2.983,1.755
				c-1.007,0.516-1.931,1.053-2.773,1.615c-0.842,0.561-1.521,1.193-2.035,1.895c-0.516,0.702-0.772,1.544-0.772,2.527H1243.499z
				 M1243.71,734.921V724.39h9.196v10.531H1243.71z"/>
		</g>
	</g>
	<rect x="1900.056" y="760.374" fill="#FFDC7D" width="101.707" height="7.592"/>
	<rect x="1900.056" y="771.288" fill="#FFDC7D" width="101.707" height="20.563"/>
</g>
</svg>
