<?xml version="1.0" encoding="UTF-8" standalone="no"?>
<!DOCTYPE svg PUBLIC "-//W3C//DTD SVG 1.1//EN" "http://www.w3.org/Graphics/SVG/1.1/DTD/svg11.dtd">
<svg version="1.1" xmlns="http://www.w3.org/2000/svg" xmlns:xlink="http://www.w3.org/1999/xlink" preserveAspectRatio="xMidYMid meet" viewBox="0 0 1500 1500" width="1500" height="1500"><defs><path d="M1208.76 1454.21C1208.76 1464.03 1140.74 1471.99 1056.85 1471.99C972.95 1471.99 904.93 1464.03 904.93 1454.21C904.93 1444.38 972.95 1436.42 1056.85 1436.42C1140.74 1436.42 1208.76 1444.38 1208.76 1454.21Z" id="b1gtvKW6wV"></path><path d="M868.94 54.44C1087.4 170.82 1246.55 391.75 1373 616.83C1418.79 698.34 1462.27 783.42 1479.49 874.41C1514.53 1059.59 1423.13 1251.3 1267.68 1318.48C1214.81 1341.35 1156.73 1350.73 1098.57 1355.95C995.14 1365.26 888.04 1361.56 785.44 1327.1C712.27 1302.47 643.05 1262.86 576.67 1219.09C391.27 1096.8 221.95 937.98 100.03 743.98C46.56 658.9 1.33 562.97 0.02 464.79C-1.28 366.62 52.59 267.96 141.23 251.27C177.87 244.37 216.63 251.55 254.45 258.94C310.13 269.83 366.56 281.28 421.6 276.53C478.46 271.59 552.42 245.2 562.79 180.73C573.76 111.51 584.21 51.03 651.02 21.53C717.93 -8.01 799.38 17.39 868.94 54.44Z" id="b2f67GfBX"></path><path d="M424.51 1406.81C424.51 1406.81 426.18 1417.37 418.15 1422.1C418.15 1422.1 418.03 1417.69 410.82 1419.18C408.26 1419.7 405.65 1419.86 403.06 1419.64C399.55 1419.35 396.22 1417.71 393.57 1414.98C393.57 1414.98 393.57 1414.98 393.57 1414.98C393.57 1414.98 373.47 1405.13 365.66 1366.11C365.66 1366.11 359.87 1357.61 360.11 1355.41C361.31 1356.02 370.96 1360.92 372.16 1361.53C372.16 1361.53 368.04 1371.88 371.29 1380.46C371.29 1380.46 371.67 1361.92 374 1362.34C374.46 1362.43 380.26 1365.86 380.26 1365.86C380.26 1365.86 373.17 1383.86 378.52 1396.95C378.52 1396.95 376.49 1374.76 382.47 1367.16C383.32 1367.75 390.12 1372.47 390.97 1373.06C390.97 1373.06 382.68 1391.65 388.31 1406.81C388.31 1406.81 386.83 1383.54 392.75 1374.48C393.52 1375.18 399.68 1380.81 400.45 1381.52C400.45 1381.52 392.66 1399.85 397.42 1412.44C397.42 1412.44 398.02 1385.34 402.11 1383.29C402.11 1383.29 408.85 1390.33 409.87 1393.25C409.87 1393.25 404.54 1406.55 407.84 1413.57C407.84 1413.57 409.87 1395.52 411.55 1395.43C411.55 1395.43 418.24 1407.39 418.95 1415.59C418.95 1415.59 418.66 1403.4 413.16 1394.29C413.16 1394.29 419.65 1395.61 423.44 1400.6C423.44 1400.6 422.39 1392.14 411.52 1391.4C411.52 1391.4 405.98 1382.34 404.48 1381.78C404.48 1381.78 415.31 1380.71 421.87 1384.17C421.87 1384.17 416.09 1376.19 402.5 1379.81C401.74 1379.08 395.66 1373.19 394.9 1372.46C394.9 1372.46 409.16 1370.14 415.19 1372.7C415.19 1372.7 408.24 1365.67 392.85 1370.79C392.03 1370.2 385.42 1365.5 384.59 1364.91C384.59 1364.91 396.74 1361.8 403.98 1362.92C403.98 1362.92 396.34 1358.03 382.16 1363.33C381.57 1363.01 376.83 1360.49 376.24 1360.18C376.24 1360.18 385.12 1358.1 387.74 1357.77C387.74 1357.77 390.48 1356.59 390.48 1356.59C384.85 1355.47 379.06 1356.23 373.76 1358.79C373.76 1358.79 361.23 1353.46 361.45 1352.44C374.06 1363.31 432.94 1347.32 424.51 1406.81Z" id="a3wmBWJoh0"></path><path d="M461.29 1427.29C461.29 1432.9 438.63 1437.44 410.69 1437.44C382.74 1437.44 360.09 1432.9 360.09 1427.29C360.09 1421.68 382.74 1417.14 410.69 1417.14C438.63 1417.14 461.29 1421.68 461.29 1427.29Z" id="bTPWJadkH"></path><path d="M301.24 1343.08C301.76 1346.57 300.31 1350.06 297.67 1351.7C297.67 1351.7 297.6 1349.22 293.54 1350.06C292.1 1350.36 290.63 1350.44 289.17 1350.31C287.19 1350.17 285.3 1349.24 283.81 1347.69C283.81 1347.69 283.81 1347.69 283.81 1347.69C283.81 1347.69 272.49 1342.11 268.05 1320.12C268.05 1320.12 264.79 1315.32 264.91 1314.09C265.59 1314.44 271.04 1317.26 271.72 1317.61C271.72 1317.61 269.4 1323.45 271.22 1328.29C271.22 1328.29 271.44 1317.82 272.7 1318.07C272.97 1318.07 276.24 1320.09 276.24 1320.09C276.24 1320.09 272.24 1330.24 275.26 1337.68C275.26 1337.68 274.11 1325.17 277.48 1320.88C277.96 1321.21 281.79 1323.87 282.27 1324.21C282.27 1324.21 277.6 1334.76 280.79 1343.24C280.79 1343.24 279.97 1330.12 283.29 1325.01C283.72 1325.42 287.2 1328.62 287.63 1329.03C287.63 1329.03 283.19 1339.35 285.93 1346.46C285.93 1346.46 286.27 1331.17 288.58 1330.03C288.58 1330.03 292.37 1334 292.95 1335.64C292.95 1335.64 289.99 1343.13 291.81 1347.09C291.81 1347.09 292.95 1336.92 293.9 1336.87C293.9 1336.87 297.67 1343.61 298.06 1348.23C297.87 1343.96 296.75 1339.82 294.8 1336.22C296.98 1336.69 298.99 1337.92 300.59 1339.74C300.59 1339.74 300.01 1334.97 293.87 1334.55C293.87 1334.55 290.74 1329.43 289.91 1329.13C289.91 1329.13 296.01 1328.52 299.72 1330.47C299.72 1330.47 296.46 1325.96 288.79 1328C288.36 1327.59 284.93 1324.27 284.51 1323.85C284.51 1323.85 292.55 1322.55 295.95 1323.99C295.95 1323.99 292.03 1320.02 283.35 1322.92C282.88 1322.59 279.16 1319.93 278.7 1319.6C282.28 1318.67 285.95 1318.29 289.62 1318.49C289.62 1318.49 285.32 1315.73 277.32 1318.72C276.99 1318.54 274.32 1317.13 273.99 1316.96C273.99 1316.96 279.01 1315.78 280.48 1315.6C280.48 1315.6 282.03 1314.93 282.03 1314.93C278.85 1314.31 275.58 1314.74 272.6 1316.18C272.6 1316.18 265.58 1313 265.69 1312.42C272.8 1318.55 306 1309.53 301.24 1343.08Z" id="e2dTjYw5eK"></path><path d="M321.98 1354.6C321.98 1357.77 309.21 1360.34 293.45 1360.34C277.7 1360.34 264.92 1357.77 264.92 1354.6C264.92 1351.44 277.7 1348.87 293.45 1348.87C309.21 1348.87 321.98 1351.44 321.98 1354.6Z" id="dZPErKPYm"></path><path d="M1300.18 1381.61C1300.77 1385.82 1299.03 1390.02 1295.85 1392.02C1295.85 1392.02 1295.76 1389.01 1290.86 1390.03C1289.11 1390.38 1287.34 1390.49 1285.57 1390.33C1283.18 1390.15 1280.91 1389.03 1279.11 1387.16C1279.11 1387.16 1279.11 1387.16 1279.11 1387.16C1279.11 1387.16 1265.43 1380.46 1260.11 1353.9C1260.11 1353.9 1256.17 1348.11 1256.33 1346.63C1257.15 1347.05 1263.72 1350.37 1264.54 1350.79C1264.54 1350.79 1261.74 1357.82 1263.95 1363.68C1263.95 1363.68 1264.21 1351.05 1265.78 1351.37C1266.11 1351.37 1270.05 1353.79 1270.05 1353.79C1270.05 1353.79 1265.22 1366.11 1268.86 1374.9C1268.86 1374.9 1267.49 1359.81 1271.56 1354.64C1272.14 1355.04 1276.76 1358.23 1277.34 1358.63C1277.34 1358.63 1271.69 1371.3 1275.53 1381.62C1275.53 1381.62 1274.54 1365.79 1278.49 1359.62C1279.02 1360.1 1283.21 1363.99 1283.73 1364.47C1283.73 1364.47 1278.43 1376.94 1281.66 1385.58C1281.66 1385.58 1282.09 1367.15 1284.88 1365.74C1284.88 1365.74 1289.45 1370.54 1290.15 1372.51C1290.15 1372.51 1286.52 1381.57 1288.77 1386.36C1288.77 1386.36 1290.15 1374.04 1291.29 1374.04C1291.29 1374.04 1295.85 1382.19 1296.33 1387.76C1296.1 1382.61 1294.75 1377.61 1292.4 1373.27C1295.03 1373.86 1297.46 1375.35 1299.39 1377.56C1299.39 1377.56 1298.68 1371.81 1291.26 1371.3C1291.26 1371.3 1287.5 1365.12 1286.49 1364.75C1286.49 1364.75 1293.9 1364.01 1298.34 1366.37C1298.34 1366.37 1294.4 1360.95 1285.14 1363.42C1284.63 1362.91 1280.49 1358.9 1279.97 1358.4C1279.97 1358.4 1289.67 1356.82 1293.79 1358.56C1293.79 1358.56 1289.05 1353.76 1278.58 1357.26C1278.02 1356.86 1273.51 1353.67 1272.95 1353.27C1272.95 1353.27 1281.22 1351.16 1286.15 1351.91C1286.15 1351.91 1280.95 1348.59 1271.34 1352.19C1270.93 1351.98 1267.71 1350.26 1267.31 1350.05C1267.31 1350.05 1273.37 1348.62 1275.14 1348.41C1275.14 1348.41 1277.01 1347.6 1277.01 1347.6C1273.17 1346.84 1269.24 1347.36 1265.63 1349.1C1265.63 1349.1 1257.07 1345.33 1257.22 1344.66C1257.22 1344.66 1305.88 1341.15 1300.18 1381.61Z" id="bGcZg5nFG"></path><path d="M1325.16 1395.63C1325.16 1399.44 1309.75 1402.54 1290.73 1402.54C1271.71 1402.54 1256.29 1399.44 1256.29 1395.63C1256.29 1391.81 1271.71 1388.71 1290.73 1388.71C1309.75 1388.71 1325.16 1391.81 1325.16 1395.63Z" id="axl7zyq8m"></path><path d="M1207.13 898.85C1207.13 891.3 1198.49 884.62 1198.49 884.62C1198.49 884.62 1193.16 869.96 1189.6 867.8C1186.05 865.63 1175.07 846.46 1175.07 846.46C1174.95 842.68 1173.79 839.05 1171.77 836.12C1168.48 830.98 1165.48 825.6 1162.78 820C1161.3 817.86 1162.04 816.34 1159.82 803.84C1159.7 803.19 1159.57 802.55 1159.4 801.95C1159.4 801.67 1159.26 801.43 1159.17 801.14C1163.98 795.41 1165.61 786.92 1163.36 779.28C1162.96 777.79 1162.23 776.45 1161.25 775.41C1158.75 772.98 1154.75 773.98 1152.18 771.68C1152.45 770.24 1154.64 758.73 1154.92 757.29C1155.57 753.77 1155.91 749.32 1153.32 747.42C1152.34 746.87 1151.32 746.46 1150.26 746.21C1145.82 744.45 1143.24 738.87 1142.09 733.51C1140.98 728.34 1140.68 722.97 1141.2 717.67C1141.7 712.57 1142.96 707.61 1143.42 702.49C1144.26 693.02 1142.34 683.5 1137.99 675.51C1136.29 672.06 1133.8 669.26 1130.8 667.45C1128.06 665.99 1124.88 665.69 1122.31 663.93C1116.8 659.76 1117.09 649.86 1112.69 644.18C1108.29 638.5 1100.5 638.51 1094.08 640.47C1087.67 642.42 1081.29 645.74 1074.71 644.92C1070.47 644.35 1066.5 642.07 1062.25 641.54C1061.04 641.4 1059.81 641.47 1058.61 641.73C1058.61 641.72 1058.61 641.59 1058.61 641.57C1055.47 642.24 1052.58 644.32 1051.84 647.85C1051.67 648.69 1051.6 649.56 1051.63 650.42C1051.63 652.48 1052.05 654.63 1052.08 656.6C1052.19 658.18 1051.75 659.75 1050.88 660.94C1050.03 662.01 1048.79 662.58 1047.91 663.69C1047.19 664.54 1046.8 665.71 1046.83 666.92C1046.83 670.05 1050.12 672.82 1052.33 674.08C1052.34 674.08 1052.41 674.08 1052.42 674.08C1051.82 674.79 1051.23 675.52 1050.68 676.28C1044.36 684.77 1040.87 695.71 1040.88 707.05C1040.99 725.76 1050.44 742.61 1064.93 749.94C1064.9 750.05 1064.65 750.97 1064.62 751.08C1064 753.34 1063.27 755.56 1062.44 757.73C1059.34 756.49 1055.94 756.94 1053.14 758.96C1048.91 762.48 1040.63 762.2 1038.42 761.55C1036.21 760.9 1013.24 757.45 1011.39 758.31C1009.54 759.17 1005.88 755.3 1003.49 760.47C1001.11 765.65 1000 768.44 997.57 769.74C995.14 771.05 990.95 775.13 991.51 775.99C992.07 776.85 985.44 782.02 985.44 782.02C985.44 782.02 979.73 789.06 976.43 789.99C973.13 790.92 966.14 796.25 966.14 796.25C965.33 797.01 958.84 803.03 958.03 803.78C958.03 803.78 951.98 804.87 953.81 799.91C953.81 799.91 950.5 788.71 950.5 788.71C950.5 788.71 940.2 763.92 940.2 758.8C940.2 758.8 931.74 731.85 931.74 731.85C931.67 731.84 931.33 731.8 930.71 731.73C930.42 730.77 930.26 730.24 930.23 730.13C928.68 724.94 926.66 718.57 925.12 714.84C922.16 707.72 920.34 706.98 920.34 706.98C920.34 706.98 884.67 675.17 861.51 684.87C838.34 694.56 903.79 723.44 909.67 726.47C911.73 727.52 913.21 730.94 914.25 734.93C909.03 737.92 904.64 742.61 901.59 748.46C901.59 748.46 915.75 785.73 916.12 795.01C916.12 795.01 925.86 830.19 925.86 830.19C925.86 830.19 929.36 849.38 948.29 848.29C948.29 848.29 974.4 853.99 980.1 848.29C985.81 842.59 990.95 838.12 993.72 837.47C995.75 836.68 997.54 835.17 998.86 833.16C998.86 833.16 990.22 897.81 985.98 903.42C981.75 909.03 944.32 981.61 957.75 994.6C968.39 1004.38 979.64 1013.2 991.39 1020.98C992.53 1021.65 995.95 1014.88 1000.84 1010.08C1000.84 1011.29 1000.84 1012.52 1000.84 1013.82C1000.93 1039.65 1003.8 1078.91 1007.77 1087.71C1013.7 1100.64 1011.27 1125.63 1011.27 1125.63C1014.38 1127.38 1017.77 1128.34 1021.21 1128.47C1021.39 1129.31 1021.59 1130.23 1021.79 1131.11C1025.03 1145.65 1030.29 1168.15 1032.97 1174.13C1037.01 1183.19 1039.94 1211.87 1039.94 1211.87C1039.94 1211.87 1042.34 1240.01 1041.43 1243.97C1041.07 1245.47 1042.63 1257.18 1045.07 1272.12C1045.07 1272.12 1045.07 1272.12 1045.07 1272.12C1043.59 1292.33 1040.77 1331.29 1040.3 1345.39C1040.3 1345.39 1040.3 1345.39 1040.3 1345.39C1040.3 1345.65 1040.3 1345.91 1040.3 1346.16C1040.3 1346.18 1040.3 1346.38 1040.3 1346.41C1040.31 1346.56 1040.31 1346.72 1040.3 1346.88C1040.3 1347.2 1040.3 1347.48 1040.3 1347.74C1040.3 1347.74 1040.3 1347.74 1040.3 1347.74C1040.25 1348.63 1040.28 1349.52 1040.39 1350.4C1040.57 1351.74 1040.49 1353.11 1040.14 1354.41C1039.09 1358.31 1037.76 1362.08 1036.15 1365.7C1035.48 1367.48 1034.88 1369.3 1034.38 1371.16C1032.89 1371.93 1031.09 1373.81 1030.08 1378.4C1028.24 1386.81 1025.49 1410.07 1025.49 1410.07C1025.49 1410.07 1024.38 1424.3 1022.19 1427.54C1019.99 1430.77 1017.74 1451.02 1033.4 1453.61C1049.05 1456.19 1055.82 1443.76 1055.82 1443.76C1055.79 1439.99 1055.6 1421.18 1055.28 1387.32C1055.28 1387.26 1055.28 1387.22 1055.28 1387.22C1055.59 1386.74 1055.86 1386.23 1056.09 1385.69C1056.09 1385.67 1056.09 1385.56 1056.09 1385.55C1056.19 1385.28 1056.31 1385 1056.42 1384.68C1056.42 1384.66 1056.47 1384.52 1056.55 1384.26C1056.69 1383.85 1056.77 1383.62 1056.79 1383.58C1056.78 1383.49 1056.78 1383.41 1056.79 1383.33C1058.31 1377.92 1058.76 1372.18 1058.12 1366.53C1058.12 1366.51 1058.12 1366.42 1058.12 1366.25C1058.12 1365.98 1058.12 1365.84 1058.12 1365.81C1058.12 1365.67 1058.12 1365.51 1058.12 1365.37C1058.12 1365.28 1058.12 1364.58 1058.12 1364.49C1058.12 1364.38 1058.12 1364.26 1058.12 1364.16C1058.12 1363.59 1058.2 1363.11 1058.21 1362.99C1058.3 1362.4 1058.21 1362.85 1058.21 1362.78C1058.21 1362.74 1058.24 1362.51 1058.3 1362.1C1058.3 1361.92 1058.3 1361.82 1058.3 1361.8C1058.3 1361.57 1058.3 1361.34 1058.42 1361.09C1058.41 1361.04 1058.41 1360.98 1058.42 1360.92C1058.56 1360.11 1058.74 1359.16 1058.93 1358.39C1058.93 1358.37 1058.93 1358.31 1058.93 1358.19L1059.16 1357.35C1059.16 1357.35 1059.16 1357.35 1059.16 1357.35C1059.38 1356.45 1059.63 1355.59 1059.9 1354.64C1059.9 1354.62 1059.9 1354.48 1059.9 1354.46C1059.9 1354.18 1060.06 1353.9 1060.15 1353.64C1060.15 1353.62 1060.15 1353.54 1060.15 1353.53C1060.41 1352.67 1060.7 1351.77 1060.96 1351.03C1060.97 1351.02 1060.99 1350.94 1061.04 1350.8L1061.27 1350.1L1061.35 1349.89L1061.91 1348.32L1061.91 1348.32C1064.51 1357.88 1065.96 1363.18 1066.25 1364.24C1066.25 1364.24 1068.65 1376.1 1067.36 1378.9C1067.36 1378.9 1068.84 1393.34 1070.66 1393.55C1070.49 1395.02 1069.13 1406.74 1068.96 1408.2C1068.04 1416.28 1067.49 1424.42 1067.32 1432.57C1067.2 1433.5 1067.08 1434.33 1066.99 1434.89C1065.81 1442.4 1068.65 1454.05 1068.65 1454.05C1083.17 1474.44 1100.47 1455.63 1100.47 1455.63C1100.47 1455.63 1102.48 1444.85 1100.47 1442.7C1098.45 1440.55 1099.36 1432.78 1099.36 1432.78C1099.36 1432.78 1100.27 1413.59 1100.45 1399.58C1100.63 1385.58 1090.81 1373.2 1090.81 1373.2C1090.75 1373.26 1090.32 1373.72 1090.26 1373.78C1088.47 1368.29 1086.42 1361.89 1086.85 1359.02C1087.59 1354.06 1084.83 1301.69 1084.83 1301.69C1085.85 1287.65 1086.07 1273.54 1085.48 1259.47C1085.48 1259.47 1085.48 1259.47 1085.48 1259.47C1085.71 1257.09 1085.94 1254.75 1086.16 1252.43C1087.27 1241.17 1088.17 1231.55 1088.53 1226.5C1088.53 1226.5 1088.53 1226.5 1088.53 1226.5C1088.53 1226.14 1088.53 1225.94 1088.53 1225.9C1088.62 1224.55 1088.66 1223.58 1088.65 1223.13C1088.65 1221.37 1088.65 1219.36 1088.79 1217.16C1089.14 1211.11 1089.94 1204.37 1089.94 1204.37C1090.32 1201.59 1093.4 1179.34 1093.79 1176.56C1093.79 1176.56 1096.75 1162.98 1100.97 1155.45C1101 1155.39 1101.17 1155.07 1101.47 1154.5C1101.47 1154.5 1101.47 1154.5 1101.47 1154.5C1101.64 1154.17 1101.8 1153.8 1101.98 1153.41C1101.98 1153.4 1102.04 1153.27 1102.05 1153.25C1102.21 1152.88 1102.39 1152.5 1102.55 1152.09C1102.56 1152.08 1102.62 1151.95 1102.63 1151.93C1103.22 1150.54 1103.86 1148.94 1104.52 1147.18C1104.52 1147.04 1104.63 1146.92 1104.67 1146.78C1104.72 1146.65 1105.13 1145.58 1105.18 1145.44C1105.18 1145.27 1105.3 1145.09 1105.37 1144.91C1105.44 1144.74 1105.68 1144.02 1105.84 1143.58C1105.92 1143.4 1105.98 1143.22 1106.04 1143.03C1106.23 1142.5 1106.44 1141.96 1106.63 1141.4C1106.66 1141.32 1106.88 1140.67 1106.91 1140.59C1107.04 1140.18 1107.19 1139.78 1107.34 1139.37C1107.37 1139.27 1107.66 1138.41 1107.69 1138.3C1107.8 1138.04 1107.89 1137.77 1107.98 1137.51C1108.02 1137.39 1108.34 1136.42 1108.38 1136.29C1108.38 1136.12 1108.51 1135.93 1108.57 1135.75C1109.62 1132.64 1110.63 1129.56 1111.53 1126.76C1111.53 1126.76 1111.53 1126.76 1111.53 1126.76C1111.81 1125.88 1112.09 1125 1112.35 1124.23C1121.77 1124.91 1128.16 1125.53 1128.16 1125.53C1128.16 1125.53 1131.13 1100.32 1130.18 1083.73C1129.56 1072.4 1131.33 1058.15 1132.5 1050.31C1132.64 1049.45 1132.76 1048.67 1132.88 1047.97C1132.9 1047.99 1133.1 1048.19 1133.13 1048.21C1137.73 1052.52 1141.04 1038.29 1141.04 1038.29C1141.04 1038.29 1139.79 1025.01 1138.07 1008.92C1138.06 1008.76 1137.91 1007.48 1137.9 1007.31C1140.55 1007.99 1143.24 1008.48 1145.94 1008.78C1145.94 1008.78 1147.42 1008.62 1149.45 1008.32C1155.06 1012.18 1160.99 1015.36 1167.14 1017.82C1168.11 1015.67 1175.95 998.5 1176.93 996.36C1178.77 991.91 1180.92 987.65 1183.37 983.64C1186.33 979.33 1196.79 965.54 1196.61 962.95C1196.43 960.36 1200.11 945.48 1203.78 938.8C1207.45 932.11 1208.92 918.67 1208.74 917.6C1207.81 911.41 1207.27 905.14 1207.13 898.85ZM1160.2 949.93C1160.03 953.17 1155.97 967.38 1151.75 969.11C1147.85 970.69 1140.41 978.82 1139.23 980.12C1138.01 980.24 1136.64 980.44 1135.2 980.72C1133.59 967.12 1131.99 955.86 1130.96 953.59C1128 947.12 1134.21 926.43 1134.21 926.43C1134.21 926.43 1134.82 905.53 1138.65 900.57C1142.49 895.61 1141.61 883.1 1141.61 883.1C1141.61 883.1 1142.53 877.93 1142.9 875.57C1143.27 873.22 1148.37 875.57 1148.41 875.57C1148.41 875.57 1148.41 875.57 1148.41 875.57C1148.41 875.57 1158.34 882.03 1159.82 891.72C1159.82 891.72 1172.14 918.23 1172.14 918.23C1172.14 918.23 1170.48 924.06 1172.14 927.03C1173.8 930 1171.79 932.04 1167.92 933.98C1164.05 935.91 1160.38 946.7 1160.2 949.93Z" id="fs3CguO0"></path><linearGradient id="gradientc3GzwrTA62" gradientUnits="userSpaceOnUse" x1="1032.7" y1="1463.69" x2="1032.7" y2="639.09"><stop style="stop-color: #808080;stop-opacity: 0.25" offset="0%"></stop><stop style="stop-color: #808080;stop-opacity: 0.12" offset="54%"></stop><stop style="stop-color: #808080;stop-opacity: 0.1" offset="100%"></stop></linearGradient><path d="M902 749.78C908.17 737.69 919.84 731.16 931.62 733.21C931.62 734.89 931.62 743.28 931.62 758.38L918.75 758.38L908.68 755.35C905.12 752.38 902.89 750.52 902 749.78Z" id="bg7unDFMR"></path><path d="M902 749.78C908.17 737.69 919.84 731.16 931.62 733.21C931.62 734.89 931.62 743.28 931.62 758.38L918.75 758.38L908.68 755.35C905.12 752.38 902.89 750.52 902 749.78Z" id="g1vSXVhBDg"></path><path d="M916.81 753C916.81 753 916.68 750.38 916.28 746.79C915.49 740 913.73 729.81 909.93 727.84C904.13 724.82 839.66 696 862.53 686.31C885.4 676.62 920.49 708.39 920.49 708.39C920.49 708.39 922.29 709.12 925.18 716.21C926.66 719.94 928.69 726.29 930.22 731.48C931.62 736.16 932.59 739.87 932.59 739.87C929.43 742.5 918.39 751.68 916.81 753Z" id="a2Fh7AclC9"></path><path d="M1060.4 759.08L1065.44 765.91L1061.32 776.34L1054.3 773L1055.93 764.66L1058.61 760.09L1058.61 760.09L1060.4 759.08Z" id="a4NengTUxY"></path><path d="M1034.75 1371.05C1034.75 1371.05 1030.21 1370.42 1028.41 1378.81C1028.41 1378.81 1023.87 1410.47 1023.87 1410.47C1023.87 1410.47 1022.79 1424.67 1020.62 1427.91C1020.62 1427.91 1016.28 1451.36 1031.66 1453.92C1031.66 1453.92 1053.76 1444.09 1053.76 1444.09C1053.73 1440.33 1053.55 1421.52 1053.22 1387.67C1043.37 1378.81 1037.21 1373.27 1034.75 1371.05Z" id="c7BaaZzSa"></path><path d="M1088.45 1373.58C1088.45 1373.58 1098.14 1385.9 1097.96 1399.87C1097.96 1399.87 1096.87 1432.99 1096.87 1432.99C1096.87 1432.99 1095.98 1440.75 1097.96 1442.89C1097.96 1442.89 1097.96 1455.81 1097.96 1455.81C1097.96 1455.81 1080.93 1474.58 1066.62 1454.22C1066.62 1454.22 1063.84 1442.59 1064.99 1435.1C1066.15 1427.61 1069.38 1393.92 1069.38 1393.92C1073.19 1389.85 1084.64 1377.65 1088.45 1373.58Z" id="f61ANoUWNA"></path><path d="M1112.45 1116.35C1112.45 1116.35 1102.67 1148.82 1098.5 1156.35C1098.5 1156.35 1091.45 1177.46 1091.45 1177.46C1091.07 1180.23 1088.02 1202.43 1087.64 1205.2C1086.9 1211.4 1086.47 1217.65 1086.37 1223.92C1086.54 1230.16 1076.95 1321.14 1076.95 1321.14C1075.42 1323.45 1063.25 1341.87 1061.73 1344.17C1061.73 1344.17 1055.04 1360.3 1056.12 1367.04C1056.12 1367.04 1055.39 1384.47 1053.16 1387.69C1053.16 1387.69 1052.8 1408.8 1052.25 1413.5C1051.71 1418.2 1054.25 1431.58 1052.25 1433.94C1050.25 1436.3 1023.64 1435.24 1022.91 1431.35C1022.19 1427.47 1026.17 1408.77 1026.17 1408.77C1026.41 1406.96 1028.29 1392.51 1028.52 1390.7C1028.52 1390.7 1033.24 1380.81 1032.15 1377.58C1032.15 1377.58 1034.14 1366.83 1034.32 1366.18C1034.32 1366.18 1039.4 1354.99 1038.49 1350.91C1037.59 1346.83 1044.2 1260.03 1044.2 1260.03C1045.44 1249.66 1051.66 1197.82 1062.84 1104.51C1089.3 1110.82 1105.84 1114.77 1112.45 1116.35Z" id="e4JtKD1TTP"></path><path d="M1112.45 1116.35C1112.45 1116.35 1110.97 1121.24 1108.94 1127.66C1105.71 1137.79 1101.06 1151.74 1098.5 1156.35C1094.33 1163.88 1091.43 1177.46 1091.43 1177.46C1091.05 1180.23 1088.01 1202.44 1087.62 1205.22C1086.89 1211.42 1086.47 1217.67 1086.37 1223.93C1086.37 1226.4 1084.97 1242.11 1083.2 1260.21C1080.46 1287.88 1076.95 1321.16 1076.95 1321.16C1075.42 1323.46 1063.25 1341.89 1061.73 1344.19C1061.73 1344.19 1060.96 1345.95 1060 1348.73C1058.09 1354 1055.39 1362.57 1056.12 1366.99C1057.2 1373.65 1055.39 1384.4 1053.16 1387.64C1053.16 1387.64 1052.79 1408.75 1052.25 1413.45C1051.72 1418.14 1054.25 1431.51 1052.25 1433.89C1050.25 1436.26 1023.64 1435.19 1022.91 1431.32C1022.19 1427.45 1026.17 1408.73 1026.17 1408.73C1026.41 1406.92 1028.29 1392.46 1028.52 1390.65C1028.52 1390.65 1033.24 1380.76 1032.14 1377.52C1032.14 1377.52 1034.14 1366.78 1034.32 1366.13C1034.32 1366.13 1039.4 1354.94 1038.49 1350.86C1037.8 1347.74 1041.46 1296.78 1043.16 1272.61C1043.74 1265.01 1044.11 1260.07 1044.11 1260.07C1045.18 1251.15 1050.52 1206.55 1060.15 1126.27L1061.45 1115.48L1062.76 1104.54C1089.26 1110.84 1105.82 1114.77 1112.45 1116.35Z" id="a4Cd3ulOI"></path><path d="M1066.93 1443.11C1063.26 1440.52 1066.93 1408.47 1066.93 1408.47C1067.1 1407.01 1068.44 1395.31 1068.61 1393.85C1066.81 1393.62 1064.09 1382.01 1065.35 1379.21C1066.61 1376.42 1064.27 1364.59 1064.27 1364.59C1063.98 1363.54 1062.56 1358.26 1060 1348.76C1058.44 1342.95 1057.57 1339.72 1057.39 1339.07C1053.16 1327.97 1047.02 1296.31 1043.22 1272.66C1040.82 1257.82 1039.29 1246.12 1039.63 1244.62C1040.54 1240.75 1038.15 1212.57 1038.15 1212.57C1038.15 1212.57 1035.19 1183.95 1031.28 1174.93C1028.63 1168.94 1023.46 1146.48 1020.26 1131.98C1018.63 1124.54 1017.5 1119.2 1017.5 1119.2C1017.5 1119.2 1044.88 1116.47 1061.48 1115.52C1069.11 1115.08 1074.47 1115.03 1073.85 1115.77C1073.23 1116.5 1073.06 1120.44 1073.09 1126.14C1073.17 1140.9 1074.9 1166.87 1076.74 1173.85C1079.27 1183.53 1081.8 1212.55 1080.72 1215.37C1079.64 1218.18 1080 1236.88 1080 1236.88C1081.86 1244.48 1082.94 1252.32 1083.2 1260.23C1083.78 1274.23 1083.57 1288.27 1082.57 1302.25C1082.57 1302.25 1085.28 1354.53 1084.56 1359.48C1084.56 1359.48 1090.35 1379.92 1090.35 1382.93C1090.35 1382.93 1092.16 1406.37 1092.16 1406.37C1092.16 1406.37 1096.04 1437.51 1096.16 1439.87C1096.32 1442.24 1070.61 1445.69 1066.93 1443.11Z" id="b18dVi8At"></path><path d="M1110.45 811.51L1107.34 815.5L1105.31 818.1L1093.46 833.23L1062.84 837.33L1046.55 832.16C1044.13 831.39 1042.79 830.96 1042.52 830.87C1042.52 830.87 1042.52 821.16 1043.25 809.52C1044.28 794.58 1046.76 776.45 1052.67 771.5C1055.63 768.75 1057.99 765.2 1059.56 761.14C1060.74 758.34 1061.73 755.44 1062.52 752.45C1062.64 752.06 1062.73 751.7 1062.83 751.31C1064.16 746.1 1065.12 740.76 1065.7 735.35C1065.7 735.35 1069.61 732.78 1075.05 729.79C1089.22 721.93 1113.71 711.08 1105.19 735.35C1103.94 738.91 1102.87 742.55 1101.99 746.26C1101.86 746.8 1101.74 747.35 1101.64 747.88C1098.79 761.39 1100.67 769.59 1102.79 774.11C1102.79 774.11 1102.79 774.11 1102.79 774.11C1103.15 774.89 1103.56 775.64 1104.02 776.34C1104.6 777.28 1105.29 778.12 1106.08 778.82C1106.32 780.59 1107.49 789.45 1109.61 805.4L1109.9 807.6L1110.45 811.51Z" id="a5dvWFNIC"></path><path d="M1105.21 736.65C1098.75 742.11 1083.54 757.64 1074.99 757.64C1069.21 757.64 1067.48 756.39 1062.53 753.74C1064.03 748.17 1065.1 742.45 1065.72 736.65C1065.72 736.65 1116.98 703.09 1105.21 736.65C1103.59 741.26 1105.99 732.89 1105.21 736.65Z" id="bQDqvhXnJ"></path><path d="M1082.9 755.02C1081.54 755.18 1080.16 755.28 1078.77 755.28C1056.96 755.28 1039.28 734.29 1039.28 708.39C1039.28 682.48 1056.96 661.49 1078.77 661.49C1100.58 661.49 1118.26 682.48 1118.26 708.39C1118.26 708.39 1118.26 708.39 1118.26 708.39C1118.24 732.38 1102.99 752.49 1082.9 755.02Z" id="a4USqMp9vf"></path><path d="M1123.87 916.28C1120.49 926.74 1118.62 932.55 1118.24 933.71C1118.24 933.71 1113.66 933.94 1106.52 934.21C1082.43 935.12 1029.32 936.28 1026.95 928.93C1026.42 927.06 1026.14 925.11 1026.13 923.14C1025.81 911.93 1030.21 894.73 1030.21 894.73C1030.21 894.73 1032.75 860.3 1032.75 858.81C1032.75 857.31 1030.57 833.2 1030.57 833.2C1030.86 831.91 1032.31 825.46 1034.92 813.85C1042.2 807.78 1046.25 804.4 1047.05 803.73C1047.05 803.73 1052.49 813.63 1055.75 814.48C1055.75 814.48 1063.36 820.09 1063.36 820.09C1063.36 820.09 1074.04 827.83 1077.49 823.52C1077.49 823.52 1107.74 800.28 1107.74 800.28C1108.68 801.52 1113.39 807.69 1121.87 818.79L1123.87 916.28Z" id="aotBhSmSd"></path><path d="M1123.87 918.95C1120.49 929.4 1118.62 935.21 1118.24 936.37C1118.24 936.37 1113.66 936.62 1106.52 936.88C1106.45 936.88 1105.9 936.88 1105.83 936.88C1102.75 937 1099.22 937.13 1095.46 937.21C1076.31 937.74 1049.93 937.88 1036.14 935.45C1030.95 934.57 1027.56 933.31 1027 931.58C1026.69 930.55 1026.47 929.47 1026.35 928.38C1026.26 927.57 1026.2 926.62 1026.17 925.8C1025.86 914.59 1030.26 897.39 1030.26 897.39C1030.26 897.39 1032.79 862.96 1032.79 861.47C1032.79 859.97 1030.61 835.85 1030.61 835.85C1030.9 834.56 1032.36 828.11 1034.97 816.5L1043.31 809.57C1045.58 807.67 1046.85 806.62 1047.1 806.4C1048.37 808.67 1049.76 810.85 1051.26 812.91C1052.43 814.78 1053.99 816.24 1055.79 817.15C1059.07 818.01 1063.41 822.76 1063.41 822.76C1063.41 822.76 1074.09 830.5 1077.54 826.19C1080.16 822.91 1096.45 811.07 1103.98 805.67C1106.29 803.99 1107.78 802.96 1107.78 802.96C1107.91 803.12 1108.54 803.96 1109.68 805.45L1121.91 821.46L1123.87 918.95Z" id="e16WzRZuNS"></path><path d="M916.81 753C916.81 753 916.68 750.38 916.28 746.79C924.07 742.88 928.81 734.24 930.17 731.48C931.62 736.16 932.59 739.87 932.59 739.87C929.43 742.5 918.39 751.68 916.81 753Z" id="bClzTlFKc"></path><path d="M988.01 784.42C985.95 783.76 984.81 783.4 984.58 783.32C984.58 783.32 978.95 790.36 975.69 791.29C975.69 791.29 965.56 797.52 965.56 797.52C964.76 798.27 958.37 804.3 957.58 805.05C957.58 805.05 951.65 806.14 953.41 801.18C953.41 801.18 950.15 789.99 950.15 789.99C950.15 789.99 940.01 765.26 940.01 760.09C940.01 754.91 931.62 733.21 931.62 733.21C931.62 733.21 921.11 757.52 901.91 749.78C901.91 749.78 915.87 786.98 916.22 796.24C916.58 805.49 925.82 831.3 925.82 831.3C925.82 831.3 929.27 850.45 947.92 849.38C947.92 849.38 973.65 855.06 979.26 849.38C984.87 843.7 989.94 839.23 992.59 838.58C995.24 837.93 997.66 834.29 997.66 834.29C997.66 832.58 997.66 824.06 997.66 808.71L988.01 784.42Z" id="a2Qj0xVJ9p"></path><path d="M955.77 808.71C955.77 808.71 960.3 828.73 957.4 830.87C957.4 830.87 955.77 808.71 955.77 808.71Z" id="bfWFeTAGc"></path><path d="M1106.52 936.79C1082.43 937.71 1029.32 938.85 1026.95 931.51C1026.42 929.65 1026.14 927.7 1026.13 925.73C1031.37 926.05 1057.62 927.7 1104.85 930.65C1105.74 933.93 1106.3 935.97 1106.52 936.79Z" id="a65K9rbYDB"></path><path d="M1112.45 1116.35C1112.45 1116.35 1110.97 1121.24 1108.94 1127.66C1098.94 1126.94 1085.7 1126.18 1073.12 1126.07C1068.68 1126.07 1064.33 1126.07 1060.21 1126.25C1051.47 1126.57 1043.91 1127.41 1039.1 1129.03C1033.01 1131.25 1026.65 1132.23 1020.29 1131.91C1018.66 1124.47 1017.53 1119.13 1017.53 1119.13C1017.53 1119.13 1044.91 1116.4 1061.51 1115.45C1061.6 1114.72 1062.03 1111.07 1062.81 1104.51C1089.29 1110.82 1105.83 1114.77 1112.45 1116.35Z" id="h2iOr0P7WF"></path><path d="M1133.65 1037.61C1131.8 1042.25 1130.77 1044.83 1130.56 1045.35C1130.56 1045.35 1130.13 1047.65 1129.59 1051.31C1128.43 1059.19 1126.62 1073.41 1127.31 1084.73C1128.21 1101.31 1125.31 1126.46 1125.31 1126.46C1125.31 1126.46 1058.65 1119.79 1039.1 1126.46C1019.55 1133.13 1009.92 1126.46 1009.92 1126.46C1009.92 1126.46 1012.29 1101.52 1006.48 1088.6C1002.53 1079.81 999.75 1040.55 999.66 1014.72C999.66 1002.81 1000.16 993.79 1001.42 991.96C1005.4 986.15 1022.42 928.07 1022.42 928.07C1022.68 928.08 1023.97 928.16 1026.3 928.31L1036.67 928.96L1095.62 932.66L1104.88 933.24L1105.86 936.76L1133.65 1037.61Z" id="b2AV4I0as"></path><path d="M1162.99 1011.78C1163.32 1015.92 1163.5 1018.22 1163.54 1018.68C1163.54 1018.68 1134.34 1007.39 1135.82 993.51C1135.82 993.51 1135.82 981.19 1135.82 981.19C1137.39 981.35 1145.21 982.13 1159.28 983.55L1162.99 1011.78Z" id="a3k0f1tQ1"></path><path d="M1162.99 1011.78C1163.32 1015.92 1163.5 1018.22 1163.54 1018.68C1163.54 1018.68 1134.34 1007.39 1135.82 993.51C1135.82 993.51 1135.82 981.19 1135.82 981.19C1137.39 981.35 1145.21 982.13 1159.28 983.55L1162.99 1011.78Z" id="bjJXQO7T7"></path><path d="M985.53 820.62C984.43 820.34 983.41 819.73 982.56 818.86C980.47 817.1 978.49 815.18 976.48 813.32C974.85 811.8 972.82 809.29 970.82 808.67C972.13 810.72 973.61 812.59 975.25 814.27C978.23 817.28 981.74 819.45 985.53 820.62Z" id="d1ipealmio"></path><path d="M977.94 827.57C978.88 831.95 978.82 836.54 977.78 840.88C977.31 839.54 973.57 828.82 973.1 827.48C972.28 825.19 971.47 822.91 970.49 820.72C970.06 819.79 967.37 815.9 967.68 815.09C968.51 812.81 974.82 822.04 975.69 823.33C976.63 824.59 977.39 826.02 977.94 827.57Z" id="bamf1WGA"></path><path d="M1114.8 892.83C1109.99 893.55 1105.43 895.8 1100.69 896.98C1096.29 898.2 1091.67 897.69 1087.54 895.54C1092.99 898.71 1100.48 898.81 1106.29 897.56C1109.48 897.1 1112.46 895.45 1114.8 892.83Z" id="e3tnZTNu0P"></path><path d="M1090.23 857.45C1084.81 853.76 1080.61 850.52 1079.54 849.75C1076.12 847.13 1071.98 844.47 1069.07 841.16C1076.25 848.87 1082.94 855.38 1092.68 858.18C1091.81 858.33 1090.93 858.07 1090.23 857.45Z" id="agdKnRkyu"></path><path d="M1108.38 903.26C1110.26 902.8 1111.92 901.5 1113.03 899.64C1112.35 899.45 1111.65 899.59 1111.06 900.01C1105.32 902.88 1099.02 903.77 1092.87 902.59C1095.82 904.09 1099.59 903.79 1102.72 903.81C1104.62 903.91 1106.52 903.73 1108.38 903.26Z" id="f1LI4oEhlb"></path><path d="M1056.85 1006.38C1053.79 1006.55 1050.74 1006.48 1047.69 1006.17C1046.7 1006.1 1041.77 1005.73 1032.88 1005.06C1028.44 1004.73 1025.97 1004.54 1025.47 1004.5C1024.6 1004.5 1021.03 1004.5 1022.79 1002.41C1023.68 1001.39 1028.63 1002.04 1029.9 1001.98C1033.59 1001.84 1036.57 1001.84 1037.31 1001.83C1042.21 1001.83 1047.13 1001.83 1052.03 1002.18C1057.53 1002.49 1062.93 1002.99 1068.41 1003.69C1064.64 1005.04 1060.77 1005.94 1056.85 1006.38Z" id="f3MpBkAw3x"></path><path d="M1042.89 1014.44C1039.99 1014.85 1037.07 1014.98 1034.15 1014.84C1028.38 1014.68 1022.68 1013.3 1017.31 1010.76C1028.61 1011.45 1039.94 1011.85 1051.25 1012.4C1048.73 1012.28 1045.48 1014.05 1042.89 1014.44Z" id="cqHeeJmFx"></path><path d="M1022.75 1022.67C1029 1024.78 1035.65 1022.92 1042 1021.05C1040.42 1023.89 1037.56 1025.1 1034.7 1025.87C1030.05 1027.27 1025.2 1027.48 1020.48 1026.49C1019 1026.14 1015.28 1025.5 1014.56 1023.67C1013.34 1020.98 1018.13 1021.35 1019.52 1021.62C1020.61 1021.88 1021.69 1022.23 1022.75 1022.67Z" id="b6Vv6WvrWp"></path><path d="M1060.1 1037.26C1067.14 1039.33 1074.44 1036.48 1081.51 1034.56C1090 1032.27 1098.71 1031.32 1107.41 1031.71C1105.86 1031.71 1103.38 1033.33 1101.86 1033.88C1099.86 1034.6 1097.83 1035.27 1095.8 1035.87C1091.82 1037.03 1087.77 1037.98 1083.7 1038.66C1075.48 1040.07 1067.15 1040.5 1058.86 1039.95C1055.07 1039.7 1048.49 1040.16 1045.25 1037.89C1048.05 1035.91 1051.32 1035.07 1054.56 1035.5C1056.44 1035.95 1058.29 1036.54 1060.1 1037.26Z" id="bbvhUhg8r"></path><path d="M1057.22 770.18C1057.22 770.18 1057.57 789.99 1054.86 799.03C1054 801.85 1052.67 807.04 1051.22 812.86C1049.63 819.32 1047.9 826.55 1046.57 832.21C1045.23 837.88 1044.34 841.68 1044.34 841.68C1044.34 841.68 1038.23 900.85 1036.64 929.05C1036.64 929.54 1036.64 930.05 1036.55 930.53C1036.46 932.11 1036.32 933.77 1036.09 935.47C1032.57 963.48 1012.23 1006.66 1005.4 1010.11C1003.27 1011.27 1001.33 1012.86 999.66 1014.81C999.66 1002.9 1000.16 993.88 1001.42 992.05C1005.4 986.24 1022.42 928.15 1022.42 928.15C1022.81 928.18 1025.91 928.38 1026.3 928.4C1026.21 927.59 1026.15 926.64 1026.13 925.81C1025.81 914.61 1030.21 897.4 1030.21 897.4C1030.21 897.4 1032.75 862.98 1032.75 861.48C1032.75 859.99 1030.57 835.87 1030.57 835.87C1030.86 834.58 1032.31 828.13 1034.92 816.52C1039.93 812.36 1042.71 810.05 1043.26 809.59C1044.3 794.65 1046.77 776.52 1052.68 771.57C1055.64 768.82 1058 765.27 1059.57 761.21C1060.74 761.41 1058.61 760.17 1058.61 760.17C1058.33 762.18 1057.49 768.18 1057.22 770.18Z" id="c23Mvv8uhY"></path><path d="M1060.4 759.08C1057.34 757.84 1053.98 758.29 1051.23 760.32C1047.05 763.83 1038.91 763.53 1036.73 762.9C1034.55 762.27 1011.92 758.8 1010.07 759.66C1008.22 760.53 1004.63 756.66 1002.28 761.83C999.92 767 998.84 769.78 996.49 771.06C994.13 772.35 989.95 776.45 990.56 777.31C991.17 778.17 984.64 783.32 984.64 783.32C985.96 788.43 996.53 829.24 997.85 834.34C997.85 834.34 989.33 898.86 985.17 904.46C985.17 904.46 944.05 982.55 957.28 995.46C967.75 1005.24 978.83 1014.06 990.43 1021.85C991.91 1022.71 997.12 1011.1 1004.37 1007.44C1011.61 1003.78 1034.08 955.37 1035.47 927.84C1036.86 900.31 1043.26 839 1043.26 839C1043.26 839 1051.05 805.44 1053.76 796.39C1056.47 787.35 1056.12 767.55 1056.12 767.55C1056.98 765.85 1059.54 760.78 1060.4 759.08Z" id="a4UXt2PBh"></path><path d="M1133.65 1037.61C1131.8 1042.25 1130.77 1044.83 1130.56 1045.35C1130.56 1045.35 1130.13 1047.65 1129.59 1051.31C1129.04 1051.23 1128.52 1050.95 1128.11 1050.52C1123.57 1046.21 1097 1013.74 1095.68 984.9C1094.75 963.64 1095.19 945.31 1095.49 937.14C1095.58 934.57 1095.67 933.03 1095.67 932.69C1095.67 932.69 1095.67 932.69 1095.67 932.69C1095.67 932.69 1116.32 903 1113.96 892.48C1113.96 892.48 1106.17 825.63 1106.17 825.63C1106.12 825.14 1105.85 822.68 1105.37 818.24L1103.99 805.75L1100.7 775.53C1102.75 776.1 1103.88 776.42 1104.11 776.48C1104.69 777.43 1105.38 778.26 1106.17 778.96C1106.4 780.73 1107.58 789.59 1109.69 805.54L1121.93 821.55L1123.93 919.01C1120.55 929.46 1118.68 935.26 1118.3 936.42C1118.3 936.42 1113.72 936.67 1106.58 936.93C1106.54 936.93 1106.31 936.93 1105.89 936.93L1133.65 1037.61Z" id="ah3MdG5U"></path><path d="M1139.63 876.73C1139.63 876.73 1138.36 884.25 1138.36 884.25C1138.36 884.25 1139.26 896.74 1135.39 901.68C1135.39 901.68 1130.95 927.49 1130.95 927.49C1130.95 927.49 1124.85 948.14 1127.74 954.59C1128.79 956.93 1130.42 968.67 1132.05 982.74C1133.08 991.54 1134.1 1001.19 1135.01 1010.02C1136.65 1026.07 1137.88 1039.35 1137.88 1039.35C1137.88 1039.35 1134.61 1053.55 1130.08 1049.24C1125.54 1044.93 1098.97 1012.45 1097.67 983.62C1096.78 963.37 1097.13 945.78 1097.43 937.11C1097.55 933.43 1097.67 931.36 1097.67 931.36C1097.67 931.36 1118.31 901.66 1115.96 891.12C1113.6 880.59 1108.17 824.28 1108.17 824.28C1108.11 823.7 1107.79 820.79 1107.22 815.57L1106.2 806.21L1105.96 804.15L1102.69 774.25C1102.69 774.25 1102.69 774.25 1102.69 774.25C1103.27 774.41 1123.59 779.86 1126.27 783.04C1128.95 786.23 1145.52 790.78 1145.52 790.78C1150.62 792.42 1154.55 797.22 1155.8 803.31C1155.97 803.91 1156.09 804.54 1156.2 805.19C1158.38 817.68 1157.69 819.18 1159.17 821.34C1160.65 823.5 1145.05 876.73 1145.05 876.73C1145.05 876.73 1139.98 874.36 1139.63 876.73Z" id="af8Ual8uA"></path><path d="M1116.98 995.21C1117.2 986.82 1125.71 983.8 1132.15 982.72C1133.19 991.48 1134.21 1001.18 1135.13 1010.01C1127.72 1008.25 1116.73 1004.18 1116.98 995.21Z" id="h3blCWgC8T"></path><path d="M1154.93 1007.53C1150.97 1008.65 1146.94 1009.43 1142.89 1009.87C1142.89 1009.87 1117.71 1007.49 1118.06 993.93C1118.33 984.2 1129.71 981.61 1136.09 981.03C1137.5 980.88 1138.92 980.81 1140.34 980.82C1140.34 980.82 1159.18 1002.76 1158.1 1005.54C1157.8 1006.29 1156.62 1006.95 1154.93 1007.53Z" id="aByVdtmLn"></path><path d="M1154.93 1007.53C1148.37 997.09 1139.21 983.71 1134.73 982.53C1134.86 982.38 1135.95 981.18 1136.09 981.03C1137.5 980.88 1138.92 980.81 1140.34 980.82C1140.34 980.82 1159.18 1002.76 1158.1 1005.54C1157.8 1006.29 1156.62 1006.95 1154.93 1007.53Z" id="d3WZYPOXbB"></path><path d="M1151.76 819.9C1156.2 820.68 1158.67 821.11 1159.17 821.2C1161.84 826.79 1164.81 832.18 1168.05 837.33C1170.04 840.27 1171.19 843.89 1171.31 847.66C1171.31 847.66 1182.18 866.8 1185.62 868.94C1185.62 868.94 1194.32 885.72 1194.32 885.72C1194.32 885.72 1202.83 892.39 1202.83 899.92C1202.98 906.2 1203.53 912.45 1204.46 918.64C1204.65 919.71 1203.2 933.06 1199.57 939.75C1195.94 946.43 1192.32 961.17 1192.51 963.81C1192.7 966.45 1182.36 980.17 1179.47 984.46C1177.06 988.48 1174.94 992.73 1173.13 997.16C1172.17 999.32 1164.5 1016.53 1163.54 1018.68C1163.54 1018.68 1143.24 983.18 1135.82 981.24C1135.82 981.24 1144.15 971.78 1148.31 970.06C1152.47 968.33 1156.47 954.22 1156.65 950.92C1156.83 947.61 1160.45 936.93 1164.25 935.08C1168.04 933.24 1170.05 931.21 1168.42 928.19C1166.79 925.16 1168.42 919.39 1168.42 919.39C1168.42 919.39 1157.73 902.61 1156.28 893.01C1154.83 883.4 1145.05 876.88 1145.05 876.88C1144.68 875.78 1142.81 870.33 1139.44 860.52L1151.76 819.9Z" id="aw0A0SsLN"></path><path d="M1193.32 893.62C1189.89 894.33 1186.27 895.22 1183.75 898.07C1182.77 899.31 1181.88 900.65 1181.1 902.08C1180.24 903.54 1173.25 914.1 1172.22 912.43C1170.48 909.98 1177.3 901.63 1178.7 900.2C1182.8 896.09 1187.96 893.77 1193.32 893.62Z" id="f1XZ1S3un"></path><path d="M1167.46 885.67C1168.34 883.25 1168.89 880.67 1169.08 878.04C1169.61 873.63 1170.35 869.27 1171.31 864.97C1171.9 863.24 1171.78 861.3 1171 859.69C1170.6 858.31 1170.07 857 1169.4 855.78C1168.07 857.54 1167.68 861.64 1167.14 864C1166.45 866.92 1165.83 869.86 1165.24 872.79C1164.93 874.2 1162.47 890.02 1162.29 890.02C1164.55 889.78 1166.53 888.12 1167.46 885.67Z" id="k2V02Z5JDn"></path><path d="M1153.37 806.23C1150.41 809.03 1146.49 811.38 1146.12 815.8C1146.22 817.23 1146.07 818.68 1145.67 820.04C1144.72 821.97 1142.4 821.8 1140.55 821.43C1138.99 821.26 1137.49 820.6 1136.21 819.53C1134.27 817.56 1134.09 814.04 1132.61 811.56C1130.78 808.96 1128.05 807.53 1125.2 807.67C1122.43 807.57 1119.68 808.3 1116.91 808.44C1115.13 808.55 1113.34 808.41 1111.59 808.02C1111.01 807.92 1110.44 807.78 1109.87 807.6C1108.63 807.24 1107.42 806.75 1106.26 806.14C1105.65 805.86 1105.07 805.53 1104.5 805.16C1102.64 804.02 1100.92 802.6 1099.39 800.93C1096.67 797.98 1094.42 793.9 1094.65 789.52C1094.78 786.83 1095.8 784.34 1096.13 781.69C1097.24 774.09 1092.99 766.91 1088.38 761.48C1086.54 759.31 1084.59 757.22 1082.75 755.02C1079.89 751.89 1077.63 748.06 1076.13 743.8C1074.89 739.26 1074.49 734.46 1074.95 729.72C1075.36 724.92 1075.48 720.09 1075.29 715.26C1073.92 698.16 1061.63 685.06 1049.34 677.93C1049.28 677.9 1048.84 677.63 1048.79 677.6C1063.11 658.08 1088.04 656.04 1104.48 673.05C1120.92 690.06 1122.63 719.68 1108.31 739.2C1106.39 741.81 1104.24 744.16 1101.89 746.21C1101.76 746.75 1101.64 747.3 1101.53 747.83C1098.69 761.34 1100.57 769.53 1102.69 774.05C1102.69 774.05 1102.69 774.05 1102.69 774.05C1103.27 774.21 1123.59 779.67 1126.27 782.85C1128.95 786.03 1145.52 790.59 1145.52 790.59C1150.66 792.21 1154.63 797.04 1155.88 803.17C1155.15 804.3 1154.31 805.33 1153.37 806.23Z" id="athm5zbGR"></path><path d="M1049.05 662.45C1051.62 659.15 1049.05 653.75 1049.99 649.38C1050.99 644.55 1056 642.44 1060.18 642.95C1064.35 643.46 1068.27 645.74 1072.44 646.31C1078.93 647.17 1085.21 643.83 1091.53 641.87C1097.86 639.92 1105.5 639.81 1109.86 645.57C1114.21 651.32 1113.92 661.12 1119.34 665.29C1121.84 667.2 1125 667.42 1127.71 668.8C1130.67 670.61 1133.13 673.41 1134.79 676.84C1139.08 684.85 1140.97 694.34 1140.15 703.78C1139.69 708.88 1138.44 713.84 1137.94 718.94C1137.43 724.24 1137.73 729.6 1138.83 734.77C1139.97 740.05 1142.44 745.75 1146.87 747.44C1147.9 747.71 1148.89 748.11 1149.83 748.65C1152.4 750.55 1152.06 755.02 1151.4 758.5C1151.14 759.95 1149.03 771.5 1148.77 772.95C1151.3 775.23 1155.24 774.25 1157.66 776.66C1158.62 777.71 1159.34 779.04 1159.73 780.53C1162.17 788.8 1160.05 797.99 1154.41 803.64C1151.45 806.44 1147.52 808.8 1147.15 813.19C1147.27 814.63 1147.12 816.08 1146.71 817.43C1145.78 819.37 1143.44 819.19 1141.58 818.82C1140.03 818.65 1138.54 818 1137.26 816.92C1135.3 814.95 1135.14 811.44 1133.66 808.96C1131.83 806.36 1129.1 804.93 1126.25 805.07C1123.47 804.96 1120.73 805.7 1117.94 805.86C1111.52 806.17 1105.25 803.48 1100.48 798.37C1097.76 795.39 1095.52 791.33 1095.73 786.93C1095.86 784.26 1096.88 781.76 1097.21 779.1C1098.3 771.52 1094.07 764.33 1089.46 758.89C1084.85 753.45 1079.45 748.44 1077.2 741.21C1074.38 732.26 1077.11 722.27 1076.35 712.77C1074.99 695.65 1062.71 682.56 1050.4 675.42C1047.66 673.75 1043 669.51 1046.18 665.2C1047 664.09 1048.22 663.53 1049.05 662.45Z" id="a4Pj320abL"></path><path d="M1139.45 804.96C1137.62 802.37 1134.89 800.93 1132.05 801.06C1129.26 800.95 1126.51 801.69 1123.74 801.85C1117.29 802.18 1110.99 799.48 1106.21 794.34C1103.49 791.38 1101.27 787.3 1101.47 782.92C1101.61 780.23 1102.63 777.73 1102.95 775.09C1104.07 767.49 1099.81 760.3 1095.21 754.86C1090.6 749.43 1085.21 744.41 1082.94 737.18C1080.14 728.25 1082.94 718.25 1082.11 708.74C1080.74 691.62 1068.46 678.53 1056.16 671.39C1053.29 669.72 1048.62 665.48 1051.81 661.17C1052.61 660.06 1053.84 659.5 1054.67 658.43C1057.23 655.14 1054.67 649.72 1055.62 645.37C1055.8 644.51 1056.11 643.69 1056.55 642.96C1053.45 643.65 1050.62 645.73 1049.87 649.24C1048.97 653.61 1051.5 659.01 1048.94 662.31C1048.11 663.39 1046.88 663.95 1046.06 665.04C1042.88 669.35 1047.54 673.61 1050.42 675.26C1062.73 682.4 1075 695.51 1076.37 712.61C1077.12 722.12 1074.4 732.12 1077.21 741.07C1079.46 748.28 1084.87 753.38 1089.48 758.75C1094.08 764.11 1098.36 771.36 1097.22 778.96C1096.6 781.53 1096.1 784.15 1095.74 786.79C1095.53 791.17 1097.77 795.25 1100.5 798.21C1105.27 803.36 1111.56 806.06 1118 805.72C1120.79 805.56 1123.53 804.84 1126.31 804.93C1129.16 804.8 1131.89 806.24 1133.72 808.83C1135.2 811.31 1135.36 814.83 1137.32 816.8C1138.6 817.87 1140.09 818.52 1141.64 818.68C1143.5 819.09 1145.84 819.23 1146.77 817.31C1147.1 816.53 1147.24 815.65 1147.18 814.78C1145.69 814.6 1144.27 813.97 1143.05 812.93C1141.1 810.94 1140.93 807.44 1139.45 804.96Z" id="b11LY9b74M"></path><path d="M927.43 708.39L824.98 708.39L824.98 588.48L927.51 588.48L927.43 708.39ZM826.46 527.6C826.46 341.27 975.59 352.16 975.59 234.28C975.59 169.35 930.84 117.33 876.17 117.33C821.5 117.33 776.77 173.42 776.77 236.13C766.82 236.13 687.29 236.13 677.35 236.13C677.16 105.94 765.87 0.22 875.49 0C875.71 0 875.94 0 876.17 0C985.98 0 1074.99 104.05 1074.99 234.28C1074.99 381.68 925.88 398.46 925.88 527.6C925.89 527.6 836.41 527.6 826.46 527.6Z" id="aB9Xdb9e2"></path><path d="M416.44 672.68L390.01 672.68L390.01 641.68L416.44 641.68L416.44 672.68ZM390.41 626.06C390.41 578.03 428.85 580.83 428.85 550.42C428.79 533.69 417.32 520.18 403.24 520.25C403.23 520.25 403.23 520.25 403.22 520.25C389.16 520.63 377.87 534.15 377.66 550.86C375.1 550.86 354.6 550.86 352.03 550.86C352.39 517.23 375.63 490.32 403.94 490.75C431.59 491.16 453.98 517.55 454.55 550.38C454.47 588.38 416.04 592.7 416.04 625.99C416.04 626 392.97 626.06 390.41 626.06Z" id="bwSUAHEkS"></path><path d="M616.52 888.01L590.09 888.01L590.09 857.1L616.52 857.1L616.52 888.01ZM590.51 841.41C590.51 793.37 628.94 796.18 628.94 765.77C628.89 749.05 617.43 735.55 603.35 735.62C603.34 735.62 603.33 735.62 603.32 735.62C589.19 735.92 577.82 749.48 577.62 766.26C575.06 766.26 554.56 766.26 551.99 766.26C552.35 732.64 575.59 705.73 603.9 706.15C631.55 706.57 653.94 732.95 654.51 765.79C654.55 803.78 616.13 808.13 616.13 841.41C611.01 841.41 593.07 841.41 590.51 841.41Z" id="b2bBahMphm"></path><path d="M738.18 506.81L719.03 506.81L719.03 484.45L738.18 484.45L738.18 506.81ZM719.33 473.01C719.33 438.22 747.19 440.24 747.19 418.22C747.14 406.09 738.82 396.31 728.61 396.37C728.61 396.37 728.61 396.37 728.61 396.37C718.39 396.61 710.18 406.43 710.04 418.57C708.18 418.57 693.32 418.57 691.46 418.57C691.38 394.2 707.95 374.37 728.46 374.27C748.98 374.18 765.68 393.85 765.76 418.22C765.73 445.75 737.9 448.9 737.9 473.01C734.18 473.01 721.18 473.01 719.33 473.01Z" id="b1UzaCLwC9"></path><path d="M1065.29 538.37L1054.46 538.37L1054.46 525.7L1065.29 525.7L1065.29 538.37ZM1054.56 519.28C1054.56 499.61 1070.31 500.75 1070.31 488.3C1070.31 481.5 1065.67 475.99 1059.94 475.99C1059.9 475.99 1059.86 475.99 1059.82 475.99C1054.05 476.13 1049.41 481.67 1049.32 488.53C1048.27 488.53 1039.87 488.53 1038.82 488.53C1039.08 474.76 1048.69 463.84 1060.29 464.15C1071.46 464.45 1080.47 475.07 1080.81 488.34C1080.87 503.8 1065.13 505.65 1065.13 519.28C1063.01 519.28 1055.62 519.28 1054.56 519.28Z" id="a13SHC01bc"></path><path d="M1230.83 1114.43L1220 1114.43L1220 1101.76L1230.83 1101.76L1230.83 1114.43ZM1220.16 1095.34C1220.16 1075.66 1235.92 1076.82 1235.92 1064.36C1235.88 1057.52 1231.18 1052.01 1225.42 1052.05C1219.64 1052.18 1215 1057.73 1214.92 1064.59C1213.87 1064.59 1205.47 1064.59 1204.42 1064.59C1204.68 1050.82 1214.29 1039.9 1225.89 1040.21C1237.05 1040.51 1246.07 1051.14 1246.41 1064.4C1246.47 1079.93 1230.72 1081.71 1230.72 1095.34C1230.71 1095.34 1221.21 1095.34 1220.16 1095.34Z" id="ckoimF17f"></path></defs><g><g><g><use xlink:href="#b1gtvKW6wV" opacity="1" fill="#53931d" fill-opacity="1"></use><g><use xlink:href="#b1gtvKW6wV" opacity="1" fill-opacity="0" stroke="#000000" stroke-width="1" stroke-opacity="0"></use></g></g><g><use xlink:href="#b2f67GfBX" opacity="1" fill="#ffb100" fill-opacity="1"></use><g><use xlink:href="#b2f67GfBX" opacity="1" fill-opacity="0" stroke="#000000" stroke-width="1" stroke-opacity="0"></use></g></g><g><use xlink:href="#a3wmBWJoh0" opacity="1" fill="#286211" fill-opacity="1"></use><g><use xlink:href="#a3wmBWJoh0" opacity="1" fill-opacity="0" stroke="#000000" stroke-width="1" stroke-opacity="0"></use></g></g><g><use xlink:href="#bTPWJadkH" opacity="1" fill="#075f17" fill-opacity="1"></use><g><use xlink:href="#bTPWJadkH" opacity="1" fill-opacity="0" stroke="#000000" stroke-width="1" stroke-opacity="0"></use></g></g><g><use xlink:href="#e2dTjYw5eK" opacity="1" fill="#166c16" fill-opacity="1"></use><g><use xlink:href="#e2dTjYw5eK" opacity="1" fill-opacity="0" stroke="#000000" stroke-width="1" stroke-opacity="0"></use></g></g><g><use xlink:href="#dZPErKPYm" opacity="1" fill="#6c63ff" fill-opacity="1"></use><g><use xlink:href="#dZPErKPYm" opacity="1" fill-opacity="0" stroke="#000000" stroke-width="1" stroke-opacity="0"></use></g></g><g><use xlink:href="#bGcZg5nFG" opacity="1" fill="#0f721a" fill-opacity="1"></use><g><use xlink:href="#bGcZg5nFG" opacity="1" fill-opacity="0" stroke="#000000" stroke-width="1" stroke-opacity="0"></use></g></g><g><use xlink:href="#axl7zyq8m" opacity="1" fill="#6c63ff" fill-opacity="1"></use><g><use xlink:href="#axl7zyq8m" opacity="1" fill-opacity="0" stroke="#000000" stroke-width="1" stroke-opacity="0"></use></g></g><g><use xlink:href="#fs3CguO0" opacity="1" fill="url(#gradientc3GzwrTA62)"></use><g><use xlink:href="#fs3CguO0" opacity="1" fill-opacity="0" stroke="#000000" stroke-width="1" stroke-opacity="0"></use></g></g><g><use xlink:href="#bg7unDFMR" opacity="1" fill="#4c4981" fill-opacity="1"></use><g><use xlink:href="#bg7unDFMR" opacity="1" fill-opacity="0" stroke="#000000" stroke-width="1" stroke-opacity="0"></use></g></g><g><use xlink:href="#g1vSXVhBDg" opacity="1" fill="#000000" fill-opacity="1"></use><g><use xlink:href="#g1vSXVhBDg" opacity="1" fill-opacity="0" stroke="#000000" stroke-width="1" stroke-opacity="0"></use></g></g><g><use xlink:href="#a2Fh7AclC9" opacity="1" fill="#ae6e79" fill-opacity="1"></use><g><use xlink:href="#a2Fh7AclC9" opacity="1" fill-opacity="0" stroke="#000000" stroke-width="1" stroke-opacity="0"></use></g></g><g><use xlink:href="#a4NengTUxY" opacity="1" fill="#4c4981" fill-opacity="1"></use><g><use xlink:href="#a4NengTUxY" opacity="1" fill-opacity="0" stroke="#000000" stroke-width="1" stroke-opacity="0"></use></g></g><g><use xlink:href="#c7BaaZzSa" opacity="1" fill="#444053" fill-opacity="1"></use><g><use xlink:href="#c7BaaZzSa" opacity="1" fill-opacity="0" stroke="#000000" stroke-width="1" stroke-opacity="0"></use></g></g><g><use xlink:href="#f61ANoUWNA" opacity="1" fill="#444053" fill-opacity="1"></use><g><use xlink:href="#f61ANoUWNA" opacity="1" fill-opacity="0" stroke="#000000" stroke-width="1" stroke-opacity="0"></use></g></g><g><use xlink:href="#e4JtKD1TTP" opacity="1" fill="#ae6e79" fill-opacity="1"></use><g><use xlink:href="#e4JtKD1TTP" opacity="1" fill-opacity="0" stroke="#000000" stroke-width="1" stroke-opacity="0"></use></g></g><g><use xlink:href="#a4Cd3ulOI" opacity="1" fill="#59471f" fill-opacity="1"></use><g><use xlink:href="#a4Cd3ulOI" opacity="1" fill-opacity="0" stroke="#000000" stroke-width="1" stroke-opacity="0"></use></g></g><g><use xlink:href="#b18dVi8At" opacity="1" fill="#ae6e79" fill-opacity="1"></use><g><use xlink:href="#b18dVi8At" opacity="1" fill-opacity="0" stroke="#000000" stroke-width="1" stroke-opacity="0"></use></g></g><g><use xlink:href="#a5dvWFNIC" opacity="1" fill="#ae6e79" fill-opacity="1"></use><g><use xlink:href="#a5dvWFNIC" opacity="1" fill-opacity="0" stroke="#000000" stroke-width="1" stroke-opacity="0"></use></g></g><g><use xlink:href="#bQDqvhXnJ" opacity="1" fill="#000000" fill-opacity="1"></use><g><use xlink:href="#bQDqvhXnJ" opacity="1" fill-opacity="0" stroke="#000000" stroke-width="1" stroke-opacity="0"></use></g></g><g><use xlink:href="#a4USqMp9vf" opacity="1" fill="#ae6e79" fill-opacity="1"></use><g><use xlink:href="#a4USqMp9vf" opacity="1" fill-opacity="0" stroke="#000000" stroke-width="1" stroke-opacity="0"></use></g></g><g><use xlink:href="#aotBhSmSd" opacity="1" fill="#000000" fill-opacity="1"></use><g><use xlink:href="#aotBhSmSd" opacity="1" fill-opacity="0" stroke="#000000" stroke-width="1" stroke-opacity="0"></use></g></g><g><use xlink:href="#e16WzRZuNS" opacity="1" fill="#ffffff" fill-opacity="1"></use><g><use xlink:href="#e16WzRZuNS" opacity="1" fill-opacity="0" stroke="#000000" stroke-width="1" stroke-opacity="0"></use></g></g><g><use xlink:href="#bClzTlFKc" opacity="1" fill="#000000" fill-opacity="1"></use><g><use xlink:href="#bClzTlFKc" opacity="1" fill-opacity="0" stroke="#000000" stroke-width="1" stroke-opacity="0"></use></g></g><g><use xlink:href="#a2Qj0xVJ9p" opacity="1" fill="#567d2a" fill-opacity="1"></use><g><use xlink:href="#a2Qj0xVJ9p" opacity="1" fill-opacity="0" stroke="#000000" stroke-width="1" stroke-opacity="0"></use></g></g><g><use xlink:href="#bfWFeTAGc" opacity="1" fill="#000000" fill-opacity="1"></use><g><use xlink:href="#bfWFeTAGc" opacity="1" fill-opacity="0" stroke="#000000" stroke-width="1" stroke-opacity="0"></use></g></g><g><use xlink:href="#a65K9rbYDB" opacity="1" fill="#000000" fill-opacity="1"></use><g><use xlink:href="#a65K9rbYDB" opacity="1" fill-opacity="0" stroke="#000000" stroke-width="1" stroke-opacity="0"></use></g></g><g><use xlink:href="#h2iOr0P7WF" opacity="1" fill="#000000" fill-opacity="1"></use><g><use xlink:href="#h2iOr0P7WF" opacity="1" fill-opacity="0" stroke="#000000" stroke-width="1" stroke-opacity="0"></use></g></g><g><use xlink:href="#b2AV4I0as" opacity="1" fill="#444053" fill-opacity="1"></use><g><use xlink:href="#b2AV4I0as" opacity="1" fill-opacity="0" stroke="#000000" stroke-width="1" stroke-opacity="0"></use></g></g><g><use xlink:href="#a3k0f1tQ1" opacity="1" fill="#4c4981" fill-opacity="1"></use><g><use xlink:href="#a3k0f1tQ1" opacity="1" fill-opacity="0" stroke="#000000" stroke-width="1" stroke-opacity="0"></use></g></g><g><use xlink:href="#bjJXQO7T7" opacity="1" fill="#000000" fill-opacity="1"></use><g><use xlink:href="#bjJXQO7T7" opacity="1" fill-opacity="0" stroke="#000000" stroke-width="1" stroke-opacity="0"></use></g></g><g><use xlink:href="#d1ipealmio" opacity="1" fill="#000000" fill-opacity="1"></use><g><use xlink:href="#d1ipealmio" opacity="1" fill-opacity="0" stroke="#000000" stroke-width="1" stroke-opacity="0"></use></g></g><g><use xlink:href="#bamf1WGA" opacity="1" fill="#000000" fill-opacity="1"></use><g><use xlink:href="#bamf1WGA" opacity="1" fill-opacity="0" stroke="#000000" stroke-width="1" stroke-opacity="0"></use></g></g><g><use xlink:href="#e3tnZTNu0P" opacity="1" fill="#000000" fill-opacity="1"></use><g><use xlink:href="#e3tnZTNu0P" opacity="1" fill-opacity="0" stroke="#000000" stroke-width="1" stroke-opacity="0"></use></g></g><g><use xlink:href="#agdKnRkyu" opacity="1" fill="#000000" fill-opacity="1"></use><g><use xlink:href="#agdKnRkyu" opacity="1" fill-opacity="0" stroke="#000000" stroke-width="1" stroke-opacity="0"></use></g></g><g><use xlink:href="#f1LI4oEhlb" opacity="1" fill="#000000" fill-opacity="1"></use><g><use xlink:href="#f1LI4oEhlb" opacity="1" fill-opacity="0" stroke="#000000" stroke-width="1" stroke-opacity="0"></use></g></g><g><use xlink:href="#f3MpBkAw3x" opacity="1" fill="#000000" fill-opacity="1"></use><g><use xlink:href="#f3MpBkAw3x" opacity="1" fill-opacity="0" stroke="#000000" stroke-width="1" stroke-opacity="0"></use></g></g><g><use xlink:href="#cqHeeJmFx" opacity="1" fill="#000000" fill-opacity="1"></use><g><use xlink:href="#cqHeeJmFx" opacity="1" fill-opacity="0" stroke="#000000" stroke-width="1" stroke-opacity="0"></use></g></g><g><use xlink:href="#b6Vv6WvrWp" opacity="1" fill="#000000" fill-opacity="1"></use><g><use xlink:href="#b6Vv6WvrWp" opacity="1" fill-opacity="0" stroke="#000000" stroke-width="1" stroke-opacity="0"></use></g></g><g><use xlink:href="#bbvhUhg8r" opacity="1" fill="#000000" fill-opacity="1"></use><g><use xlink:href="#bbvhUhg8r" opacity="1" fill-opacity="0" stroke="#000000" stroke-width="1" stroke-opacity="0"></use></g></g><g><use xlink:href="#c23Mvv8uhY" opacity="1" fill="#000000" fill-opacity="1"></use><g><use xlink:href="#c23Mvv8uhY" opacity="1" fill-opacity="0" stroke="#000000" stroke-width="1" stroke-opacity="0"></use></g></g><g><use xlink:href="#a4UXt2PBh" opacity="1" fill="#4d8149" fill-opacity="1"></use><g><use xlink:href="#a4UXt2PBh" opacity="1" fill-opacity="0" stroke="#000000" stroke-width="1" stroke-opacity="0"></use></g></g><g><use xlink:href="#ah3MdG5U" opacity="1" fill="#000000" fill-opacity="1"></use><g><use xlink:href="#ah3MdG5U" opacity="1" fill-opacity="0" stroke="#000000" stroke-width="1" stroke-opacity="0"></use></g></g><g><use xlink:href="#af8Ual8uA" opacity="1" fill="#4c4981" fill-opacity="1"></use><g><use xlink:href="#af8Ual8uA" opacity="1" fill-opacity="0" stroke="#000000" stroke-width="1" stroke-opacity="0"></use></g></g><g><use xlink:href="#h3blCWgC8T" opacity="1" fill="#000000" fill-opacity="1"></use><g><use xlink:href="#h3blCWgC8T" opacity="1" fill-opacity="0" stroke="#000000" stroke-width="1" stroke-opacity="0"></use></g></g><g><use xlink:href="#aByVdtmLn" opacity="1" fill="#ae6e79" fill-opacity="1"></use><g><use xlink:href="#aByVdtmLn" opacity="1" fill-opacity="0" stroke="#000000" stroke-width="1" stroke-opacity="0"></use></g></g><g><use xlink:href="#d3WZYPOXbB" opacity="1" fill="#000000" fill-opacity="1"></use><g><use xlink:href="#d3WZYPOXbB" opacity="1" fill-opacity="0" stroke="#000000" stroke-width="1" stroke-opacity="0"></use></g></g><g><use xlink:href="#aw0A0SsLN" opacity="1" fill="#728149" fill-opacity="1"></use><g><use xlink:href="#aw0A0SsLN" opacity="1" fill-opacity="0" stroke="#000000" stroke-width="1" stroke-opacity="0"></use></g></g><g><use xlink:href="#f1XZ1S3un" opacity="1" fill="#000000" fill-opacity="1"></use><g><use xlink:href="#f1XZ1S3un" opacity="1" fill-opacity="0" stroke="#000000" stroke-width="1" stroke-opacity="0"></use></g></g><g><use xlink:href="#k2V02Z5JDn" opacity="1" fill="#000000" fill-opacity="1"></use><g><use xlink:href="#k2V02Z5JDn" opacity="1" fill-opacity="0" stroke="#000000" stroke-width="1" stroke-opacity="0"></use></g></g><g><use xlink:href="#athm5zbGR" opacity="1" fill="#000000" fill-opacity="1"></use><g><use xlink:href="#athm5zbGR" opacity="1" fill-opacity="0" stroke="#000000" stroke-width="1" stroke-opacity="0"></use></g></g><g><use xlink:href="#a4Pj320abL" opacity="1" fill="#444053" fill-opacity="1"></use><g><use xlink:href="#a4Pj320abL" opacity="1" fill-opacity="0" stroke="#000000" stroke-width="1" stroke-opacity="0"></use></g></g><g><use xlink:href="#b11LY9b74M" opacity="1" fill="#000000" fill-opacity="1"></use><g><use xlink:href="#b11LY9b74M" opacity="1" fill-opacity="0" stroke="#000000" stroke-width="1" stroke-opacity="0"></use></g></g><g><use xlink:href="#aB9Xdb9e2" opacity="1" fill="#449219" fill-opacity="1"></use><g><use xlink:href="#aB9Xdb9e2" opacity="1" fill-opacity="0" stroke="#000000" stroke-width="1" stroke-opacity="0"></use></g></g><g><use xlink:href="#bwSUAHEkS" opacity="1" fill="#2a7b10" fill-opacity="1"></use><g><use xlink:href="#bwSUAHEkS" opacity="1" fill-opacity="0" stroke="#000000" stroke-width="1" stroke-opacity="0"></use></g></g><g><use xlink:href="#b2bBahMphm" opacity="1" fill="#1d9622" fill-opacity="1"></use><g><use xlink:href="#b2bBahMphm" opacity="1" fill-opacity="0" stroke="#000000" stroke-width="1" stroke-opacity="0"></use></g></g><g><use xlink:href="#b1UzaCLwC9" opacity="1" fill="#498a33" fill-opacity="1"></use><g><use xlink:href="#b1UzaCLwC9" opacity="1" fill-opacity="0" stroke="#000000" stroke-width="1" stroke-opacity="0"></use></g></g><g><use xlink:href="#a13SHC01bc" opacity="1" fill="#3ba220" fill-opacity="1"></use><g><use xlink:href="#a13SHC01bc" opacity="1" fill-opacity="0" stroke="#000000" stroke-width="1" stroke-opacity="0"></use></g></g><g><use xlink:href="#ckoimF17f" opacity="1" fill="#39a72c" fill-opacity="1"></use><g><use xlink:href="#ckoimF17f" opacity="1" fill-opacity="0" stroke="#000000" stroke-width="1" stroke-opacity="0"></use></g></g></g></g></svg>